<svg 
 xmlns="http://www.w3.org/2000/svg"
 xmlns:xlink="http://www.w3.org/1999/xlink"
 width="69.569in" height="72.403in">
<defs>
<linearGradient id="PSgrad_0" x1="0.244%" x2="0%" y1="100%" y2="0%">
  <stop offset="0%" stop-color="rgb(253,255,253)" stop-opacity="1" />
  <stop offset="25%" stop-color="rgb(255,239,225)" stop-opacity="1" />
  <stop offset="35%" stop-color="rgb(255,232,212)" stop-opacity="1" />
  <stop offset="54%" stop-color="rgb(255,214,179)" stop-opacity="1" />
  <stop offset="79%" stop-color="rgb(255,185,126)" stop-opacity="1" />
  <stop offset="84%" stop-color="rgb(255,179,115)" stop-opacity="1" />
</linearGradient>
<linearGradient id="PSgrad_1" x1="0%" x2="5.668%" y1="0%" y2="99.839%">
  <stop offset="10%" stop-color="rgb(255,155,116)" stop-opacity="1" />
  <stop offset="27%" stop-color="rgb(249,147,108)" stop-opacity="1" />
  <stop offset="52%" stop-color="rgb(234,127,88)" stop-opacity="1" />
  <stop offset="82%" stop-color="rgb(209,94,55)" stop-opacity="1" />
  <stop offset="100%" stop-color="rgb(192,70,32)" stop-opacity="1" />
</linearGradient>
<linearGradient id="PSgrad_2" x1="3.729%" x2="0%" y1="99.93%" y2="0%">
  <stop offset="30%" stop-color="rgb(255,205,164)" stop-opacity="1" />
  <stop offset="49%" stop-color="rgb(255,199,156)" stop-opacity="1" />
  <stop offset="78%" stop-color="rgb(255,183,136)" stop-opacity="1" />
  <stop offset="100%" stop-color="rgb(255,168,116)" stop-opacity="1" />
</linearGradient>
<linearGradient id="PSgrad_3" x1="0%" x2="11.821%" y1="0%" y2="99.299%">
  <stop offset="0%" stop-color="rgb(253,255,253)" stop-opacity="1" />
  <stop offset="89%" stop-color="rgb(255,179,115)" stop-opacity="1" />
</linearGradient>
<linearGradient id="PSgrad_4" x1="100%" x2="0%" y1="0%" y2="0%">
  <stop offset="0%" stop-color="rgb(253,255,253)" stop-opacity="1" />
  <stop offset="89%" stop-color="rgb(255,179,115)" stop-opacity="1" />
</linearGradient>
<linearGradient id="PSgrad_5" x1="0%" x2="33.872%" y1="0%" y2="94.089%">
  <stop offset="0%" stop-color="rgb(253,255,253)" stop-opacity="1" />
  <stop offset="89%" stop-color="rgb(255,179,115)" stop-opacity="1" />
</linearGradient>

</defs>
<path fill-rule="evenodd"  fill="rgb(224, 90, 57)"
 d="M3480.120,4467.841 L3484.269,4470.400 L3485.883,4471.404 L3485.883,4468.639 C3484.423,4468.435 3482.425,4468.149 3480.120,4467.841 Z"/>
<path fill-rule="evenodd"  fill="rgb(224, 90, 57)"
 d="M3415.072,4493.954 L3419.275,4502.495 L3424.372,4511.116 L3433.338,4511.116 L3439.743,4512.058 L3448.710,4517.630 L3448.710,4505.299 L3455.268,4502.269 L3462.800,4502.269 L3462.800,4522.627 L3475.611,4522.627 L3482.040,4529.201 L3482.040,4522.627 L3475.611,4511.116 L3475.611,4496.125 L3483.297,4488.957 L3488.471,4475.338 C3488.471,4475.338 3488.138,4475.297 3487.524,4475.194 C3487.113,4475.133 3486.549,4475.050 3485.883,4474.969 C3484.423,4474.764 3482.425,4474.478 3480.120,4474.169 L3484.269,4476.729 L3479.299,4478.697 L3472.946,4482.854 L3467.386,4488.506 L3457.857,4493.238 L3438.694,4493.238 L3432.417,4500.508 L3422.886,4500.508 C3422.886,4500.508 3422.093,4494.282 3418.915,4494.282 C3417.609,4494.282 3416.328,4494.098 3415.072,4493.954 Z"/>
<path fill-rule="evenodd"  fill="url(#PSgrad_0)"
 d="M3088.573,3910.499 L5006.367,3910.499 L5006.367,4721.504 L3088.573,4721.504 L3088.573,3910.499 Z"/>
<path fill-rule="evenodd"  fill="url(#PSgrad_1)"
 d="M3088.499,4780.966 L3088.499,5212.000 L5006.494,5212.000 L5006.494,4793.254 L3088.499,4780.966 Z"/>
<path fill-rule="evenodd"  fill="url(#PSgrad_2)"
 d="M4693.074,4406.065 L4559.207,4361.840 L4520.780,4375.406 L4450.584,4357.768 L4414.717,4373.427 C4414.717,4373.427 4362.493,4386.478 4359.020,4384.786 C4355.547,4383.096 4324.804,4384.786 4324.804,4384.786 L4281.413,4404.130 C4281.413,4404.130 4191.642,4375.886 4153.402,4360.897 C4115.164,4345.908 4078.911,4389.416 4057.757,4393.340 C4036.606,4397.265 4035.555,4362.897 4035.555,4362.897 L4020.439,4357.768 L3979.194,4337.999 L3940.983,4335.998 L3921.378,4335.998 L3889.527,4366.340 C3889.527,4366.340 3884.858,4398.693 3873.063,4389.916 C3861.266,4381.141 3852.158,4384.786 3852.158,4384.786 L3815.886,4384.786 L3804.332,4376.497 C3789.355,4365.749 3769.152,4363.281 3751.792,4370.354 C3735.104,4377.153 3721.491,4384.786 3721.491,4384.786 L3575.486,4393.340 L3540.901,4360.897 L3521.688,4360.897 L3514.105,4396.784 L3467.891,4393.340 L3433.356,4417.672 L3412.859,4434.056 L3342.835,4417.672 L3313.799,4439.518 L3281.349,4420.403 L3224.986,4402.652 L3194.244,4412.210 L3153.254,4382.172 L3129.616,4400.135 L3088.573,4363.057 L3088.573,4506.419 L5006.568,4485.596 L5006.568,4415.281 L4925.366,4365.788 L4881.411,4391.328 L4839.269,4384.561 L4792.385,4410.503 L4757.009,4394.801 L4693.074,4406.065 Z"/>
<path fill-rule="evenodd"  fill="rgb(255, 155, 116)"
 d="M3408.811,4546.259 L4689.763,4549.310 L4609.166,4485.043 L4559.208,4482.810 L4470.822,4500.854 L4428.551,4485.043 L4328.637,4482.810 L4278.194,4470.420 L4259.491,4449.346 L4231.490,4449.346 L4183.967,4416.311 L4163.728,4416.311 L4145.000,4420.755 L4129.961,4420.755 L4111.465,4436.341 L4089.125,4436.341 L4072.882,4450.677 L4049.287,4460.119 L4039.603,4463.989 L4022.003,4450.677 L4006.222,4450.677 L3991.081,4436.341 L3985.393,4430.688 L3985.342,4430.648 L3975.376,4420.755 L3960.082,4420.755 L3941.611,4416.311 L3883.711,4431.283 L3876.077,4433.268 L3848.306,4449.346 L3843.233,4450.329 L3843.208,4450.329 L3792.994,4459.955 L3774.728,4449.571 L3761.330,4460.016 L3729.203,4485.043 L3633.132,4513.142 L3594.703,4525.430 L3498.632,4525.430 L3408.811,4546.259 Z"/>
<path fill-rule="evenodd"  opacity="0.71" fill="rgb(255, 131, 97)"
 d="M3761.330,4460.016 L3761.432,4461.757 L3765.710,4469.949 L3770.834,4476.052 C3770.834,4476.052 3775.958,4481.561 3778.519,4482.810 C3781.081,4484.060 3787.896,4488.381 3787.896,4488.381 L3799.861,4493.378 L3810.953,4504.724 C3810.953,4504.724 3816.077,4504.089 3819.511,4504.724 C3822.917,4505.380 3834.445,4508.861 3834.445,4508.861 L3840.826,4514.166 L3840.826,4487.705 C3840.826,4487.705 3837.444,4482.237 3834.445,4480.189 C3831.448,4478.141 3834.445,4476.052 3834.445,4476.052 L3843.234,4476.052 L3848.536,4467.901 L3843.234,4461.082 L3843.234,4450.329 L3843.208,4450.329 L3792.994,4459.955 L3774.727,4449.571 L3761.330,4460.016 Z"/>
<path fill-rule="evenodd"  opacity="0.678" fill="rgb(255, 131, 97)"
 d="M4006.434,4531.369 L3988.227,4521.832 L3982.249,4504.727 L3969.141,4500.930 C3969.141,4500.930 3976.698,4494.299 3976.698,4493.387 C3976.698,4492.477 3969.141,4489.406 3969.141,4489.406 L3969.141,4482.810 L3976.698,4476.062 L3977.979,4467.901 C3977.979,4467.901 3966.707,4465.854 3969.141,4467.901 C3971.575,4469.949 3973.704,4477.055 3968.797,4476.062 C3963.889,4475.069 3958.764,4476.062 3958.764,4476.062 L3958.764,4482.810 L3958.764,4493.387 L3949.798,4500.669 C3949.798,4500.669 3940.831,4503.741 3936.989,4503.741 C3933.620,4503.741 3922.371,4515.550 3919.651,4518.460 C3919.392,4518.737 3918.867,4518.669 3918.727,4518.342 C3917.302,4514.976 3911.854,4501.458 3915.212,4499.180 C3919.056,4496.573 3920.337,4493.387 3920.337,4493.387 L3914.549,4482.810 C3914.549,4482.810 3925.459,4483.200 3925.459,4476.062 C3925.459,4468.925 3926.740,4459.709 3926.740,4459.709 C3926.740,4459.709 3916.447,4467.901 3914.549,4469.949 C3912.650,4471.997 3908.807,4476.062 3908.807,4476.062 L3902.403,4482.810 L3902.403,4495.539 L3894.141,4502.595 L3887.032,4504.766 L3875.990,4523.402 L3871.660,4502.717 L3883.189,4493.387 L3871.660,4488.381 L3871.660,4476.062 L3878.064,4459.709 C3878.064,4459.709 3865.255,4449.990 3871.660,4454.849 L3862.693,4476.062 L3862.693,4493.387 L3846.041,4504.727 L3821.164,4508.984 L3825.111,4487.009 L3797.365,4508.861 L3805.050,4525.021 L3816.400,4541.518 L3926.740,4555.967 L4066.530,4563.762 L4006.434,4531.369 Z"/>
<path fill-rule="evenodd"  opacity="0.471" fill="rgb(255, 131, 97)"
 d="M4093.198,4555.967 L4129.064,4549.310 L4136.114,4537.994 L4125.649,4531.369 L4122.659,4518.760 L4108.569,4510.569 L4093.198,4482.810 C4093.198,4482.810 4097.041,4513.332 4098.322,4514.168 C4099.603,4515.006 4093.198,4519.389 4093.198,4519.389 L4084.232,4519.389 L4076.545,4526.270 L4058.829,4524.485 L4048.560,4522.477 L4035.427,4545.624 L4057.332,4567.230 L4093.198,4555.967 Z"/>
<path fill-rule="evenodd"  opacity="0.471" fill="rgb(255, 131, 97)"
 d="M4043.515,4496.573 L4025.308,4525.021 L4049.288,4499.972 L4065.018,4498.621 L4072.703,4501.694 L4082.951,4500.669 L4081.670,4492.477 L4080.389,4482.810 C4080.389,4482.810 4076.545,4481.213 4076.545,4478.141 L4076.545,4465.854 L4089.356,4470.974 L4089.356,4457.662 L4099.603,4455.613 C4099.603,4455.613 4111.131,4459.669 4111.131,4462.761 C4111.131,4465.854 4113.693,4473.022 4113.693,4473.022 L4117.537,4478.141 L4122.659,4482.810 L4129.064,4482.810 C4135.469,4489.406 4139.312,4496.232 4139.312,4496.232 L4151.241,4506.365 L4151.267,4519.103 L4164.316,4525.491 L4188.450,4531.369 L4278.937,4507.838 L4291.746,4482.810 L4266.127,4474.045 L4257.161,4478.428 L4245.631,4478.428 C4245.631,4478.428 4241.788,4479.738 4237.946,4478.428 C4234.102,4477.117 4222.958,4478.428 4222.958,4478.428 L4222.958,4474.045 L4216.169,4467.901 L4208.484,4467.901 L4196.955,4475.357 L4188.450,4471.997 L4180.302,4462.782 L4180.302,4456.637 L4157.246,4456.637 L4157.246,4448.445 L4140.593,4448.445 L4140.593,4435.009 L4129.961,4420.755 L4111.465,4436.341 L4089.125,4436.341 L4072.882,4450.677 L4049.288,4460.118 L4049.288,4474.045 L4054.770,4482.810 L4049.288,4487.357 L4043.515,4496.573 Z"/>
<path fill-rule="evenodd"  fill="rgb(255, 117, 64)"
 d="M3687.136,4621.309 L4689.762,4621.309 L5006.568,4624.860 L5006.568,4442.247 L4965.857,4450.097 L4932.611,4465.116 L4889.137,4466.140 L4871.662,4478.088 L4855.039,4475.016 L4825.203,4479.452 L4798.777,4480.817 L4753.598,4476.380 L4710.551,4483.889 L4689.762,4477.967 C4689.762,4477.967 4677.748,4478.970 4672.136,4477.967 C4666.527,4476.943 4661.864,4471.946 4659.071,4470.922 C4656.278,4469.918 4649.720,4474.649 4649.720,4474.649 L4642.265,4470.799 L4637.602,4460.886 L4633.863,4452.858 L4626.407,4452.858 L4620.797,4442.802 L4612.393,4434.753 L4602.121,4428.732 L4589.977,4428.732 L4577.141,4428.732 L4575.040,4428.732 L4567.585,4435.757 L4556.390,4433.750 L4547.988,4432.768 L4536.791,4432.768 L4530.233,4436.782 L4517.167,4434.753 L4500.362,4436.782 L4488.244,4445.834 L4461.164,4453.575 L4455.553,4457.876 L4441.566,4461.890 L4429.319,4460.886 L4421.967,4471.946 L4412.411,4470.348 L4409.823,4469.918 L4400.498,4465.924 L4389.277,4459.862 L4384.615,4453.575 L4372.471,4453.575 L4359.405,4448.824 L4351.950,4443.806 L4340.754,4440.816 L4331.404,4438.808 L4322.079,4453.575 L4315.546,4453.575 L4307.142,4459.862 L4301.533,4465.924 L4292.207,4468.914 L4284.725,4472.950 L4278.194,4478.397 L4266.998,4482.965 L4244.479,4482.965 L4237.126,4490.009 L4225.930,4490.009 C4225.930,4490.009 4224.983,4483.988 4221.268,4483.988 C4217.527,4483.988 4213.788,4482.965 4210.995,4483.988 C4208.177,4485.012 4206.332,4490.009 4206.332,4490.009 C4206.332,4490.009 4201.644,4496.030 4198.850,4496.030 L4187.655,4496.030 L4182.993,4496.030 L4182.993,4504.080 L4170.849,4504.080 L4164.316,4511.124 L4164.316,4519.154 C4164.316,4519.154 4155.914,4524.170 4151.251,4524.170 C4146.589,4524.170 4141.900,4528.164 4141.900,4528.164 L4133.496,4533.182 C4133.496,4533.182 4126.964,4536.214 4124.172,4537.237 C4121.378,4538.240 4109.236,4537.237 4109.236,4537.237 L4104.830,4534.451 L4093.378,4527.160 L4083.105,4527.160 L4075.623,4527.160 L4067.246,4531.359 L4035.428,4545.634 L4021.927,4551.656 C4021.927,4551.656 4011.601,4552.228 4009.219,4551.656 L4003.019,4536.418 L3987.879,4525.174 L3977.606,4525.174 L3967.358,4522.143 L3962.670,4518.150 L3953.344,4525.174 L3942.994,4526.076 L3942.149,4526.158 L3931.876,4531.195 L3919.732,4537.647 L3896.393,4537.647 C3896.393,4537.647 3893.600,4542.234 3890.808,4543.259 C3887.990,4544.262 3687.136,4621.309 3687.136,4621.309 Z"/>
<path fill-rule="evenodd"  fill="rgb(255, 134, 95)"
 d="M4573.713,4433.716 L4574.430,4445.554 L4583.729,4460.198 L4599.947,4468.329 L4597.692,4476.991 L4606.300,4484.527 L4605.659,4496.775 L4618.212,4498.843 L4633.250,4501.342 L4630.509,4511.951 L4644.703,4517.747 L4640.348,4534.581 L4655.335,4547.423 L4689.762,4621.309 L4837.564,4623.153 L4800.483,4603.697 L4773.630,4568.882 L4732.713,4545.330 L4713.533,4516.658 L4698.190,4511.538 L4684.124,4487.986 C4684.124,4487.986 4674.319,4483.934 4668.707,4482.930 C4663.097,4481.927 4658.434,4476.909 4655.642,4475.905 C4652.850,4474.902 4646.292,4479.632 4646.292,4479.632 L4638.835,4475.763 L4634.173,4465.870 L4630.432,4457.822 L4622.978,4457.822 L4617.367,4447.786 L4608.965,4439.737 L4598.690,4433.716 L4586.547,4433.716 L4573.713,4433.716 Z"/>
<path fill-rule="evenodd"  fill="rgb(255, 134, 95)"
 d="M4412.411,4476.708 L4413.898,4484.716 C4413.898,4484.716 4422.403,4487.357 4428.551,4485.043 C4434.699,4482.728 4436.494,4492.764 4436.494,4492.764 C4436.494,4492.764 4444.178,4496.573 4445.459,4499.953 C4446.740,4503.332 4462.113,4514.166 4462.113,4514.166 L4478.765,4514.166 L4487.732,4520.126 L4501.821,4525.021 C4501.821,4525.021 4509.508,4533.438 4513.351,4532.210 C4517.193,4531.001 4519.755,4541.507 4519.755,4541.507 L4535.126,4541.507 L4546.655,4548.963 L4558.184,4549.310 L4577.141,4549.310 L4577.141,4567.230 L4605.578,4577.470 L4599.175,4566.227 L4590.208,4549.310 L4590.208,4541.507 L4577.141,4537.535 L4572.275,4531.369 L4554.341,4525.021 L4537.688,4525.021 L4526.160,4514.166 L4506.946,4504.724 L4494.034,4503.968 C4494.034,4503.968 4475.488,4490.573 4475.488,4484.716 C4475.488,4478.858 4464.675,4481.561 4464.675,4481.561 L4477.484,4463.805 L4500.362,4443.140 L4488.244,4452.172 L4461.164,4459.934 L4455.553,4464.215 L4441.566,4468.249 L4429.319,4467.245 L4421.967,4478.284 L4412.411,4476.708 Z"/>
<path fill-rule="evenodd"  fill="rgb(255, 117, 64)"
 d="M3088.583,4494.805 L3088.583,4627.926 L3612.835,4627.638 L4014.871,4627.638 L4034.537,4621.311 L4185.037,4572.854 L4192.939,4570.315 L4222.962,4560.648 C4222.962,4560.648 4210.226,4555.835 4207.848,4555.242 C4205.470,4554.627 4203.065,4551.903 4203.065,4551.903 L4183.221,4551.903 L4172.890,4548.053 L4164.169,4545.023 L4154.605,4544.428 L4146.677,4540.210 L4142.688,4542.626 L4133.966,4544.428 L4125.221,4544.428 L4121.742,4546.251 L4110.925,4551.903 L4102.154,4547.418 L4091.848,4547.418 L4084.686,4545.636 L4073.562,4539.022 L4064.842,4540.210 L4060.086,4542.626 C4060.086,4542.626 4052.900,4545.636 4050.521,4545.636 L4044.153,4545.636 L4035.434,4545.636 L4021.931,4551.658 C4021.931,4551.658 4011.598,4552.231 4009.221,4551.658 C4006.816,4551.024 4001.242,4549.220 4001.242,4549.220 L3994.106,4546.230 C3994.106,4546.230 3990.143,4543.835 3986.154,4543.835 C3982.190,4543.835 3975.055,4540.824 3975.055,4540.824 L3975.055,4536.032 L3969.480,4531.812 L3959.147,4531.812 L3959.147,4527.000 L3955.159,4527.000 L3945.646,4527.000 C3944.852,4527.000 3943.907,4526.612 3942.985,4526.078 C3941.068,4525.035 3939.278,4523.396 3939.278,4523.396 C3939.278,4523.396 3937.692,4520.406 3935.314,4519.792 C3932.936,4519.197 3929.739,4519.792 3926.568,4519.792 C3923.397,4519.792 3922.604,4523.396 3922.604,4523.396 L3913.065,4523.396 L3906.800,4519.197 L3887.619,4519.197 L3878.106,4516.453 L3872.532,4513.177 L3866.189,4510.780 L3858.235,4508.978 L3853.479,4505.373 L3846.319,4501.605 L3840.743,4501.605 L3832.816,4492.778 L3824.862,4493.945 L3822.919,4494.315 L3819.135,4495.030 L3819.135,4481.556 C3819.135,4481.556 3817.677,4481.698 3815.580,4481.841 C3812.153,4482.046 3807.090,4482.210 3804.122,4481.556 C3799.341,4480.531 3795.376,4475.349 3792.999,4474.284 C3790.619,4473.240 3785.045,4478.176 3785.045,4478.176 L3778.703,4474.141 L3774.738,4463.901 L3771.543,4455.586 L3765.200,4455.586 L3760.417,4445.204 L3753.257,4436.889 L3744.511,4430.641 L3734.205,4430.641 L3721.495,4430.641 L3715.127,4437.912 L3705.589,4435.843 L3698.429,4434.799 L3688.916,4434.799 L3683.339,4438.956 L3672.216,4436.889 L3657.920,4438.956 L3650.070,4446.083 L3650.043,4446.083 L3647.588,4448.315 L3624.547,4456.344 L3619.791,4460.788 L3607.873,4464.945 L3597.440,4463.901 L3591.174,4475.349 L3580.842,4473.240 L3572.890,4469.082 L3563.376,4462.857 L3559.412,4456.344 L3549.055,4456.344 L3537.930,4451.428 L3531.588,4446.227 L3522.050,4443.114 L3521.487,4442.970 L3514.096,4441.066 L3506.169,4456.344 L3500.568,4456.344 L3493.434,4462.857 L3488.957,4468.714 L3488.676,4469.082 L3487.296,4469.616 L3485.685,4470.251 L3480.722,4472.216 L3474.381,4476.394 L3468.806,4482.026 L3459.293,4486.756 L3440.112,4486.756 L3433.848,4494.048 L3424.308,4494.048 C3424.308,4494.048 3423.516,4487.802 3420.345,4487.802 C3419.041,4487.802 3417.761,4487.637 3416.508,4487.473 C3414.693,4487.289 3413.005,4487.188 3411.598,4487.802 C3410.447,4488.293 3409.501,4489.767 3408.811,4491.160 L3402.060,4496.853 L3377.330,4496.177 L3347.742,4487.372 L3340.684,4485.261 L3321.810,4488.846 L3304.881,4492.081 L3270.767,4481.165 L3239.439,4486.531 L3236.473,4487.043 L3200.874,4469.554 L3198.625,4470.435 L3154.383,4487.699 L3088.583,4494.805 Z"/>
<path fill-rule="evenodd"  fill="rgb(224, 90, 57)"
 d="M3700.970,4510.786 L3713.704,4532.475 L3720.186,4541.548 L3734.659,4543.843 L3741.576,4548.245 L3749.467,4549.658 L3758.691,4553.857 L3765.352,4553.549 L3775.856,4559.960 L3782.901,4565.039 L3789.381,4577.143 L3801.423,4586.338 C3801.423,4586.338 3813.925,4592.954 3817.307,4593.199 C3820.662,4593.445 3828.938,4600.224 3828.938,4600.224 L3835.880,4603.849 L3840.826,4610.567 L3843.617,4617.940 L3842.797,4621.770 L3844.284,4627.136 L3844.412,4627.648 L3888.836,4627.648 C3888.733,4626.111 3888.656,4625.046 3888.656,4625.046 L3881.329,4616.138 L3873.002,4609.030 L3872.490,4602.129 C3872.490,4602.129 3865.419,4596.660 3861.960,4595.064 L3858.502,4593.445 C3858.502,4593.445 3853.199,4593.139 3844.925,4590.639 C3836.650,4588.140 3829.783,4581.443 3829.783,4581.443 L3829.323,4575.238 L3809.288,4569.995 L3808.826,4563.810 L3799.091,4557.994 L3792.124,4552.281 L3783.822,4547.119 L3778.263,4547.385 L3777.853,4541.794 L3757.665,4539.767 L3744.344,4540.402 L3728.179,4532.885 C3728.179,4532.885 3723.900,4527.725 3719.108,4527.068 C3714.343,4526.393 3709.477,4520.556 3709.477,4520.556 L3708.913,4513.102 L3700.970,4510.786 Z"/>
<path fill-rule="evenodd"  fill="rgb(224, 90, 57)"
 d="M3824.864,4493.952 L3822.917,4494.321 L3824.506,4497.025 L3830.987,4506.098 L3845.463,4508.412 L3852.380,4512.793 L3860.271,4514.208 L3869.518,4518.426 L3876.153,4518.118 L3886.658,4524.529 L3893.703,4529.587 L3900.185,4541.692 L3912.226,4550.907 C3912.226,4550.907 3924.753,4557.524 3928.109,4557.748 C3931.466,4557.994 3939.739,4564.793 3939.739,4564.793 L3946.682,4568.418 L3951.627,4575.115 L3954.419,4582.488 L3953.601,4586.318 L3955.086,4591.705 L3956.699,4598.504 L3949.271,4603.398 L3949.757,4609.953 L3949.245,4617.735 L3946.221,4623.674 L3962.721,4622.896 L3970.278,4613.065 L3982.883,4615.154 L3992.284,4616.076 L4004.658,4615.482 L4011.473,4609.747 C4011.473,4609.747 4000.227,4599.876 3999.971,4596.457 C3999.715,4593.056 3999.459,4589.596 3999.459,4589.596 L3992.131,4580.707 L3983.805,4573.601 L3983.293,4566.677 C3983.293,4566.677 3976.222,4561.231 3972.762,4559.611 L3969.304,4557.994 C3969.304,4557.994 3964.001,4557.686 3955.726,4555.188 C3947.451,4552.711 3940.585,4546.013 3940.585,4546.013 L3940.124,4539.807 L3920.090,4534.565 L3919.630,4528.358 L3909.894,4522.542 L3905.821,4519.204 L3887.632,4519.204 L3878.101,4516.459 L3872.542,4513.183 L3866.188,4510.786 L3858.246,4508.984 L3853.481,4505.380 L3846.308,4501.611 L3840.749,4501.611 L3832.806,4492.764 L3824.864,4493.952 Z"/>
<path fill-rule="evenodd"  fill="rgb(224, 90, 57)"
 d="M3659.810,4633.791 L3408.811,4633.791 L3189.366,4628.273 L3229.005,4607.793 L3300.611,4602.674 L3335.135,4586.289 L3387.560,4587.314 L3400.346,4560.689 L3409.687,4534.068 L3409.999,4498.645 L3422.407,4514.168 L3422.407,4531.369 L3441.194,4531.369 L3451.442,4525.021 L3458.273,4515.006 L3458.273,4532.219 L3436.070,4541.518 L3434.135,4555.967 L3436.070,4567.230 L3457.846,4581.567 L3472.089,4579.295 L3480.201,4610.356 L3491.150,4614.336 L3514.207,4617.407 L3497.555,4590.101 L3510.366,4584.639 L3510.366,4572.350 L3501.398,4566.218 L3494.994,4555.967 L3480.476,4541.518 L3491.150,4541.518 L3489.869,4531.369 L3489.017,4504.727 L3497.555,4531.372 L3497.555,4546.470 L3506.095,4549.310 L3506.095,4555.967 C3506.095,4555.967 3521.466,4554.601 3523.175,4561.427 L3524.882,4568.255 L3533.423,4581.908 L3541.962,4590.101 L3550.502,4598.975 L3564.165,4598.975 L3564.326,4598.975 C3564.345,4598.709 3564.414,4598.446 3564.531,4598.194 L3567.313,4592.264 C3567.742,4591.350 3567.514,4590.323 3566.719,4589.581 L3561.129,4584.367 C3560.608,4583.881 3560.322,4583.263 3560.322,4582.624 L3560.322,4573.565 C3560.322,4573.438 3560.310,4573.311 3560.288,4573.186 L3559.100,4566.539 C3559.060,4566.327 3559.056,4566.109 3559.082,4565.895 L3560.240,4556.622 C3560.295,4556.191 3560.477,4555.778 3560.777,4555.415 L3567.456,4547.308 C3567.815,4546.871 3568.008,4546.360 3568.008,4545.835 L3568.008,4543.534 C3568.008,4542.340 3567.019,4541.291 3565.583,4540.960 L3548.657,4537.068 C3547.221,4536.737 3546.231,4535.688 3546.231,4534.493 L3546.231,4531.369 L3546.231,4521.762 C3546.231,4521.359 3546.118,4520.961 3545.899,4520.598 L3541.143,4512.724 C3540.605,4511.834 3540.724,4510.783 3541.451,4509.983 L3544.981,4506.101 C3545.744,4505.263 3545.833,4504.147 3545.210,4503.239 C3543.356,4500.535 3547.740,4497.879 3550.493,4500.036 L3555.475,4503.941 C3556.117,4504.443 3556.480,4505.134 3556.480,4505.852 L3556.480,4510.753 C3556.480,4510.864 3556.472,4510.975 3556.453,4511.085 L3555.296,4518.482 C3555.232,4518.890 3555.286,4519.303 3555.454,4519.691 L3557.629,4524.715 C3557.717,4524.918 3557.833,4525.112 3557.979,4525.291 L3562.001,4530.275 C3562.559,4530.966 3563.482,4531.414 3564.508,4531.489 L3573.370,4532.143 C3574.050,4532.192 3574.693,4532.408 3575.215,4532.757 L3580.399,4536.230 C3580.676,4536.415 3580.915,4536.636 3581.103,4536.882 L3584.661,4541.518 L3589.756,4547.717 C3590.540,4548.670 3590.482,4549.916 3589.612,4550.821 L3585.589,4555.001 C3584.998,4555.615 3584.770,4556.401 3584.959,4557.161 L3585.743,4560.292 C3585.872,4560.810 3586.190,4561.285 3586.656,4561.659 L3591.580,4565.604 C3592.078,4566.002 3592.720,4566.266 3593.418,4566.357 L3597.378,4566.867 C3599.000,4567.077 3600.193,4568.196 3600.193,4569.512 L3600.193,4572.646 C3600.193,4573.711 3600.984,4574.674 3602.204,4575.100 L3608.641,4577.345 C3608.878,4577.429 3609.104,4577.533 3609.310,4577.659 L3619.079,4583.515 C3619.190,4583.582 3619.306,4583.642 3619.428,4583.697 L3627.925,4587.579 C3628.116,4587.666 3628.319,4587.739 3628.527,4587.794 L3633.607,4589.148 C3634.976,4589.513 3635.898,4590.536 3635.898,4591.689 L3635.898,4596.296 C3635.898,4597.775 3637.399,4598.975 3639.249,4598.975 L3646.289,4598.975 C3647.026,4598.975 3647.744,4599.171 3648.330,4599.529 L3664.123,4609.227 C3665.286,4609.940 3665.734,4611.174 3665.227,4612.275 L3660.616,4622.312 C3660.131,4623.366 3658.876,4624.067 3657.470,4624.067 L3633.059,4624.067 C3632.787,4624.067 3632.526,4624.002 3632.261,4623.949 L3637.607,4627.648 L3659.810,4633.791 Z"/>
<path fill-rule="evenodd"  fill="rgb(224, 90, 57)"
 d="M3662.186,4561.315 L3658.836,4553.292 C3658.656,4552.860 3658.358,4552.401 3657.983,4551.971 L3656.330,4550.087 C3655.473,4549.109 3654.353,4548.454 3653.586,4548.483 L3644.529,4548.803 C3643.761,4548.829 3642.643,4548.175 3641.784,4547.198 L3639.542,4544.639 L3632.644,4536.772 C3632.355,4536.442 3632.027,4536.139 3631.685,4535.888 L3624.272,4530.425 C3623.436,4529.808 3622.723,4528.921 3622.419,4528.118 L3620.938,4524.207 C3620.618,4523.362 3619.850,4522.430 3618.965,4521.815 C3616.339,4519.986 3616.054,4516.902 3618.622,4518.098 L3623.266,4520.262 C3623.866,4520.542 3624.494,4521.031 3625.012,4521.620 L3628.190,4525.245 C3628.484,4525.601 3628.779,4525.958 3629.073,4526.316 L3632.465,4530.689 C3633.519,4532.050 3634.750,4533.316 3636.137,4534.468 L3638.040,4536.048 C3638.897,4536.673 3639.750,4537.296 3640.605,4537.922 L3644.588,4540.474 C3645.290,4540.925 3645.955,4541.100 3646.388,4540.949 L3650.135,4539.647 C3650.422,4539.548 3650.814,4539.591 3651.257,4539.768 L3655.668,4541.539 C3655.905,4541.633 3656.151,4541.764 3656.397,4541.926 L3661.042,4544.986 L3667.378,4549.006 C3668.352,4549.625 3669.225,4550.656 3669.553,4551.577 L3671.066,4555.834 C3671.287,4556.458 3671.768,4557.150 3672.383,4557.732 L3674.922,4560.135 C3675.342,4560.532 3675.800,4560.855 3676.241,4561.064 L3680.894,4563.274 C3681.365,4563.498 3681.791,4563.581 3682.113,4563.509 L3683.945,4563.108 C3684.396,4563.009 3685.026,4563.236 3685.663,4563.648 L3685.592,4563.493 C3685.501,4563.292 3685.423,4563.084 3685.359,4562.876 L3682.623,4553.855 C3682.495,4553.437 3682.431,4553.021 3682.433,4552.642 L3682.498,4544.184 C3682.500,4543.728 3682.405,4543.218 3682.222,4542.714 L3681.419,4540.506 C3681.001,4539.359 3680.206,4538.451 3679.467,4538.277 L3670.766,4536.247 C3670.028,4536.075 3669.233,4535.166 3668.816,4534.020 L3667.723,4531.020 L3664.367,4521.796 C3664.226,4521.409 3664.038,4521.039 3663.816,4520.711 L3659.001,4513.630 C3658.459,4512.831 3658.142,4511.808 3658.177,4510.968 L3658.353,4506.884 C3658.391,4506.002 3658.038,4504.923 3657.451,4504.112 C3655.703,4501.704 3656.676,4498.711 3658.624,4500.505 L3662.148,4503.750 C3662.603,4504.169 3663.001,4504.795 3663.252,4505.487 L3664.799,4509.737 C3664.934,4510.150 3665.069,4510.563 3665.203,4510.978 L3666.649,4515.993 C3667.100,4517.550 3667.754,4519.067 3668.603,4520.515 L3669.780,4522.525 C3670.327,4523.322 3670.874,4524.116 3671.421,4524.915 L3674.180,4528.379 C3674.663,4528.986 3675.221,4529.324 3675.691,4529.292 L3679.764,4529.026 C3680.075,4529.005 3680.430,4529.146 3680.778,4529.429 L3684.240,4532.242 C3684.425,4532.391 3684.605,4532.579 3684.772,4532.797 L3687.935,4536.889 L3692.311,4542.328 C3692.984,4543.165 3693.395,4544.366 3693.334,4545.323 L3693.050,4549.742 C3693.007,4550.391 3693.183,4551.169 3693.531,4551.878 L3694.965,4554.807 C3695.203,4555.291 3695.506,4555.716 3695.840,4556.027 L3699.352,4559.318 C3699.708,4559.651 3700.079,4559.839 3700.412,4559.855 L3702.309,4559.948 C3703.085,4559.984 3703.995,4560.939 3704.453,4562.201 L3705.549,4565.212 C3705.920,4566.233 3706.599,4567.080 3707.279,4567.365 L3710.854,4568.872 C3710.986,4568.928 3711.120,4569.007 3711.255,4569.104 L3716.555,4573.019 L3718.852,4574.509 L3720.498,4575.446 C3722.275,4576.196 3724.028,4576.938 3725.807,4577.688 L3725.807,4577.688 C3726.039,4577.756 3726.276,4577.896 3726.502,4578.092 C3727.956,4579.346 3729.540,4580.496 3731.485,4581.206 L3739.045,4583.962 C3739.988,4584.306 3741.040,4585.224 3741.642,4586.228 L3746.488,4594.310 C3746.888,4594.759 3747.219,4595.349 3747.421,4595.984 C3747.526,4596.249 3747.593,4596.499 3747.602,4596.714 L3749.108,4606.807 C3749.266,4607.869 3748.965,4608.669 3748.356,4608.809 L3737.770,4611.272 C3737.591,4611.314 3737.392,4611.296 3737.183,4611.221 L3715.400,4603.327 C3715.191,4603.251 3714.992,4603.234 3714.811,4603.275 L3706.219,4605.274 C3705.978,4605.330 3705.709,4605.247 3705.440,4605.108 C3704.842,4605.098 3704.026,4604.705 3703.268,4604.019 L3697.356,4598.672 C3695.604,4597.087 3694.139,4595.314 3693.004,4593.404 L3691.061,4590.135 C3690.563,4589.298 3689.741,4588.503 3688.915,4588.061 L3683.104,4584.950 C3682.562,4584.660 3682.012,4584.213 3681.553,4583.690 L3675.440,4576.716 C3675.072,4576.327 3674.706,4575.935 3674.340,4575.545 L3670.276,4571.493 C3669.625,4570.845 3669.022,4570.171 3668.464,4569.469 L3662.855,4562.415 C3662.564,4562.051 3662.336,4561.673 3662.186,4561.315 Z"/>
<path fill-rule="evenodd"  fill="rgb(255, 134, 95)"
 d="M4400.561,4545.303 L4395.772,4537.760 C4395.514,4537.353 4395.135,4536.935 4394.684,4536.554 L4392.704,4534.885 C4391.676,4534.018 4390.449,4533.502 4389.694,4533.619 L4380.795,4535.000 C4380.041,4535.118 4378.814,4534.601 4377.786,4533.735 L4375.096,4531.468 L4366.827,4524.498 C4366.480,4524.205 4366.099,4523.945 4365.716,4523.737 L4357.378,4519.204 C4356.438,4518.692 4355.570,4517.900 4355.120,4517.139 L4352.936,4513.445 C4352.465,4512.647 4351.533,4511.815 4350.546,4511.311 C4347.611,4509.811 4346.762,4506.794 4349.521,4507.675 L4354.514,4509.270 C4355.158,4509.477 4355.871,4509.886 4356.490,4510.408 L4360.301,4513.620 C4360.657,4513.938 4361.013,4514.256 4361.371,4514.574 L4365.530,4518.502 C4366.823,4519.725 4368.273,4520.833 4369.859,4521.810 L4372.030,4523.148 C4372.992,4523.665 4373.952,4524.181 4374.912,4524.699 L4379.321,4526.756 C4380.099,4527.120 4380.788,4527.214 4381.189,4527.015 L4384.655,4525.286 C4384.922,4525.154 4385.316,4525.150 4385.788,4525.274 L4390.477,4526.506 C4390.727,4526.572 4390.995,4526.672 4391.269,4526.804 L4396.426,4529.284 L4403.433,4532.516 C4404.510,4533.013 4405.564,4533.932 4406.056,4534.804 L4408.337,4538.836 C4408.672,4539.428 4409.273,4540.056 4409.988,4540.560 L4412.941,4542.639 C4413.429,4542.981 4413.943,4543.248 4414.418,4543.403 L4419.427,4545.041 C4419.934,4545.208 4420.371,4545.239 4420.676,4545.130 L4422.413,4544.518 C4422.843,4544.366 4423.507,4544.518 4424.212,4544.850 L4424.114,4544.705 C4423.988,4544.516 4423.871,4544.320 4423.770,4544.121 L4419.403,4535.521 C4419.200,4535.122 4419.059,4534.717 4418.994,4534.345 L4417.501,4525.970 C4417.421,4525.518 4417.233,4525.024 4416.958,4524.548 L4415.756,4522.457 C4415.133,4521.372 4414.179,4520.567 4413.417,4520.483 L4404.438,4519.498 C4403.676,4519.414 4402.721,4518.609 4402.098,4517.524 L4400.466,4514.686 L4395.449,4505.956 C4395.239,4505.589 4394.984,4505.246 4394.705,4504.948 L4388.640,4498.510 C4387.956,4497.783 4387.455,4496.809 4387.336,4495.973 L4386.758,4491.914 C4386.634,4491.037 4386.087,4490.009 4385.357,4489.278 C4383.183,4487.101 4383.596,4484.026 4385.853,4485.571 L4389.935,4488.368 C4390.462,4488.729 4390.972,4489.300 4391.347,4489.954 L4393.659,4493.977 C4393.868,4494.371 4394.077,4494.763 4394.287,4495.156 L4396.640,4499.946 C4397.371,4501.435 4398.298,4502.858 4399.405,4504.192 L4400.939,4506.040 C4401.626,4506.765 4402.314,4507.487 4403.002,4508.212 L4406.366,4511.313 C4406.957,4511.858 4407.570,4512.125 4408.030,4512.040 L4412.008,4511.298 C4412.313,4511.240 4412.689,4511.338 4413.086,4511.578 L4417.028,4513.952 C4417.239,4514.079 4417.451,4514.243 4417.658,4514.438 L4421.538,4518.114 L4426.867,4522.980 C4427.687,4523.729 4428.313,4524.869 4428.430,4525.822 L4428.962,4530.227 C4429.039,4530.873 4429.356,4531.623 4429.830,4532.283 L4431.788,4535.012 C4432.111,4535.464 4432.490,4535.848 4432.877,4536.116 L4436.956,4538.958 C4437.370,4539.246 4437.771,4539.388 4438.103,4539.365 L4439.995,4539.233 C4440.772,4539.178 4441.846,4540.016 4442.532,4541.211 L4444.170,4544.059 C4444.725,4545.026 4445.552,4545.784 4446.276,4545.987 L4450.091,4547.057 C4450.232,4547.096 4450.378,4547.158 4450.529,4547.239 L4456.491,4550.487 C4457.342,4550.890 4458.188,4551.290 4459.038,4551.692 L4460.839,4552.426 C4462.734,4552.959 4464.605,4553.485 4466.501,4554.018 L4466.501,4554.018 C4466.744,4554.058 4467.005,4554.169 4467.265,4554.337 C4468.932,4555.405 4470.712,4556.358 4472.766,4556.830 L4480.752,4558.668 C4481.747,4558.898 4482.955,4559.683 4483.737,4560.605 L4490.016,4568.030 C4490.494,4568.428 4490.930,4568.970 4491.247,4569.576 C4491.399,4569.825 4491.512,4570.064 4491.560,4570.276 L4494.905,4580.083 C4495.257,4581.114 4495.108,4581.939 4494.532,4582.151 L4484.513,4585.831 C4484.343,4585.894 4484.142,4585.900 4483.921,4585.849 L4460.923,4580.603 C4460.703,4580.552 4460.502,4580.558 4460.333,4580.620 L4452.200,4583.607 C4451.972,4583.692 4451.693,4583.641 4451.399,4583.534 C4450.807,4583.596 4449.927,4583.303 4449.051,4582.713 L4442.219,4578.118 C4440.196,4576.757 4438.420,4575.176 4436.945,4573.420 L4434.423,4570.415 C4433.778,4569.645 4432.818,4568.956 4431.920,4568.615 L4425.599,4566.221 C4425.010,4565.999 4424.385,4565.621 4423.833,4565.158 L4416.504,4558.978 C4416.068,4558.634 4415.635,4558.292 4415.200,4557.947 L4410.434,4554.419 C4409.674,4553.854 4408.951,4553.258 4408.272,4552.630 L4401.425,4546.312 C4401.071,4545.985 4400.775,4545.639 4400.561,4545.303 Z"/>
<path fill-rule="evenodd"  fill="rgb(255, 155, 116)"
 d="M3405.387,4673.160 L5006.574,4686.235 L5006.574,4658.928 L4944.976,4650.736 L4902.355,4630.256 L4858.027,4631.621 L4794.946,4645.275 L4750.619,4646.640 L4686.338,4616.244 C4686.338,4616.244 4655.698,4598.243 4636.484,4599.636 C4617.269,4601.028 4586.526,4598.284 4586.526,4598.284 C4586.526,4598.284 4583.298,4599.513 4578.405,4600.435 C4571.385,4601.786 4561.010,4602.565 4551.942,4598.284 C4544.948,4594.987 4529.166,4593.656 4512.231,4593.799 C4492.018,4593.942 4470.166,4596.175 4459.713,4599.636 C4440.498,4606.004 4403.608,4623.127 4388.236,4629.865 C4372.865,4636.603 4339.559,4624.786 4329.311,4629.865 C4319.064,4634.944 4311.199,4623.003 4277.997,4629.803 C4244.768,4636.603 4222.480,4636.603 4219.534,4638.261 C4216.588,4639.921 4188.407,4636.603 4188.407,4636.603 C4183.692,4634.125 4178.236,4632.855 4172.753,4632.855 C4168.987,4632.855 4165.196,4633.449 4161.635,4634.657 C4142.857,4640.986 4110.987,4651.389 4103.864,4651.451 C4093.617,4651.553 4070.559,4651.451 4070.559,4651.451 L4045.863,4643.238 L4003.950,4629.803 L3980.892,4616.244 L3962.960,4608.360 C3962.960,4608.360 3952.711,4605.022 3942.464,4608.360 C3932.217,4611.678 3868.220,4617.351 3852.798,4616.244 C3837.375,4615.160 3837.426,4627.981 3824.616,4629.803 C3811.807,4631.606 3796.435,4629.865 3796.435,4629.865 L3779.168,4629.865 L3752.883,4639.921 L3729.826,4641.579 L3693.959,4641.579 C3693.959,4641.579 3581.236,4666.791 3545.369,4665.828 C3509.502,4664.845 3476.198,4665.849 3476.198,4665.849 L3405.387,4673.160 Z"/>
<path fill-rule="evenodd"  opacity="0.42" fill="rgb(255, 186, 165)"
 d="M3892.800,4684.770 L3887.410,4674.677 L3881.270,4671.605 L3881.270,4664.595 L3876.146,4659.881 L3869.316,4659.881 L3865.899,4654.580 L3861.629,4654.569 L3854.798,4654.569 L3847.111,4648.395 L3821.492,4642.266 L3837.718,4650.442 L3839.401,4653.852 L3842.193,4661.225 L3847.111,4664.595 L3854.798,4666.960 L3854.798,4670.922 L3847.111,4670.933 L3847.111,4677.067 L3833.021,4677.077 L3827.462,4677.067 L3815.933,4677.067 C3815.933,4677.067 3802.603,4672.308 3803.509,4670.933 C3804.413,4669.558 3806.019,4665.775 3803.509,4664.595 C3800.997,4663.413 3793.479,4663.517 3793.479,4663.517 L3785.626,4651.126 L3781.356,4654.580 L3785.626,4659.881 L3786.481,4666.144 L3781.356,4666.960 L3777.087,4670.933 L3781.356,4677.067 L3787.334,4677.067 L3777.087,4680.548 L3754.691,4680.433 L3747.725,4677.077 L3719.017,4684.770 L3707.385,4682.528 L3711.331,4677.077 L3719.017,4670.933 L3722.987,4666.960 L3729.265,4663.517 L3736.096,4659.881 L3740.366,4654.580 C3740.366,4654.580 3733.534,4661.809 3730.118,4659.881 C3726.702,4657.951 3716.454,4666.826 3716.454,4666.826 L3707.385,4670.922 L3701.608,4670.922 L3695.832,4670.933 L3691.689,4670.922 L3685.712,4677.067 L3681.569,4680.054 L3677.170,4680.032 C3677.170,4680.032 3675.462,4680.022 3672.058,4680.004 C3668.653,4679.987 3664.010,4684.770 3664.010,4684.770 L3658.171,4689.325 L3705.335,4690.947 L3779.964,4688.382 L3827.462,4686.949 L3902.141,4692.602 L3892.800,4684.770 Z"/>
<path fill-rule="evenodd"  opacity="0.42" fill="rgb(255, 186, 165)"
 d="M3963.243,4624.021 L3994.848,4640.513 L3994.848,4647.782 L4013.482,4657.015 L4020.296,4651.281 L4034.130,4657.015 L4043.354,4662.842 L4055.329,4669.181 L4061.313,4675.315 L4076.075,4680.292 L4085.459,4692.235 L4056.289,4691.532 L4032.747,4691.136 L4010.079,4690.419 L3976.104,4688.399 L3991.432,4685.196 L3986.309,4675.315 L3986.309,4667.123 L3971.544,4664.430 L3974.353,4652.817 L3965.523,4640.037 L3947.803,4640.513 L3940.045,4631.329 L3917.991,4627.416 L3909.452,4627.416 L3963.243,4624.021 Z"/>
<path fill-rule="evenodd"  opacity="0.42" fill="rgb(255, 186, 165)"
 d="M4684.444,4652.315 C4676.476,4649.018 4658.850,4641.624 4657.518,4640.129 L4656.622,4639.105 C4656.109,4638.531 4655.315,4638.204 4654.444,4638.204 L4647.144,4638.204 C4646.169,4638.204 4645.272,4637.795 4644.812,4637.119 L4642.071,4633.146 C4641.583,4632.469 4640.713,4632.060 4639.740,4632.060 L4632.924,4632.060 C4632.413,4632.060 4631.899,4632.183 4631.464,4632.407 C4630.568,4632.900 4628.851,4633.514 4627.646,4632.060 C4626.263,4630.422 4627.109,4627.882 4627.467,4626.961 C4627.595,4626.694 4627.622,4626.428 4627.595,4626.161 L4627.083,4620.918 C4626.956,4619.813 4625.802,4618.973 4624.419,4618.973 C4623.753,4618.973 4623.087,4619.178 4622.601,4619.547 L4615.580,4624.789 C4615.197,4625.076 4608.868,4618.277 4608.304,4618.338 C4604.410,4618.788 4593.984,4627.391 4595.342,4623.192 C4596.904,4618.400 4600.466,4614.119 4595.265,4615.246 L4590.678,4616.229 C4590.270,4616.311 4589.859,4616.330 4589.450,4616.249 L4582.659,4615.102 C4582.480,4615.082 4582.276,4615.062 4582.096,4615.062 L4562.754,4615.062 C4562.600,4615.062 4562.498,4615.040 4562.345,4615.040 C4560.474,4614.795 4545.333,4612.788 4540.543,4610.556 C4535.802,4608.343 4531.807,4606.296 4531.217,4605.989 C4531.166,4605.968 4531.115,4605.927 4531.063,4605.906 L4522.813,4600.951 C4522.148,4600.561 4521.739,4599.927 4521.739,4599.251 L4521.739,4597.243 L4527.758,4599.046 C4516.255,4594.253 4513.566,4591.059 4514.231,4589.072 C4531.166,4588.929 4546.948,4590.260 4553.942,4593.557 C4563.010,4597.838 4573.385,4597.059 4580.405,4595.708 C4580.687,4595.810 4580.995,4595.871 4581.303,4595.892 L4573.105,4607.238 C4573.385,4607.238 4596.315,4598.042 4580.124,4605.948 L4590.063,4605.948 C4593.805,4606.849 4600.106,4600.561 4600.311,4601.852 L4600.311,4609.531 C4600.490,4610.679 4609.431,4606.071 4610.866,4605.948 C4612.789,4605.784 4615.811,4607.668 4618.552,4608.262 C4623.548,4609.286 4631.285,4601.340 4632.027,4602.712 C4632.642,4603.837 4635.742,4608.590 4636.716,4610.085 C4636.922,4610.392 4637.228,4610.657 4637.588,4610.863 L4645.196,4615.040 C4645.453,4615.164 4645.657,4615.328 4645.836,4615.533 L4648.194,4618.093 C4648.681,4618.646 4649.501,4618.973 4650.345,4618.973 L4657.366,4618.973 C4658.006,4618.973 4658.647,4619.158 4659.133,4619.506 L4663.744,4622.824 C4664.616,4623.438 4665.897,4623.540 4666.895,4623.069 L4667.690,4622.680 C4668.740,4622.168 4669.227,4621.164 4668.869,4620.221 L4667.511,4616.741 C4667.151,4615.840 4666.126,4615.246 4664.949,4615.246 L4663.872,4615.246 C4663.103,4615.246 4662.361,4614.980 4661.848,4614.509 L4657.569,4610.596 L4657.467,4610.515 C4656.904,4610.043 4651.677,4605.784 4654.111,4605.948 C4656.442,4606.112 4663.079,4609.819 4664.206,4610.473 C4664.307,4610.535 4664.436,4610.576 4664.564,4610.638 L4675.759,4615.021 C4676.119,4615.164 4676.529,4615.246 4676.939,4615.246 L4681.601,4615.246 C4682.548,4615.246 4683.446,4615.654 4683.906,4616.311 L4687.928,4622.025 C4688.159,4622.332 4688.261,4622.701 4688.261,4623.069 L4688.338,4650.410 C4688.338,4652.008 4686.237,4653.053 4684.444,4652.315 ZM4532.473,4600.910 L4536.443,4605.948 C4536.443,4605.948 4536.263,4608.508 4543.949,4605.948 L4550.329,4603.818 C4551.071,4603.572 4533.215,4601.196 4532.473,4600.910 Z"/>
<path fill-rule="evenodd"  opacity="0.42" fill="rgb(255, 186, 165)"
 d="M4517.186,4664.734 C4512.273,4666.885 4508.507,4661.824 4492.581,4664.707 C4476.657,4667.589 4465.972,4667.589 4464.559,4668.292 C4463.148,4668.997 4449.638,4667.589 4449.638,4667.589 L4451.081,4661.184 L4456.844,4660.160 C4456.844,4660.671 4460.048,4657.599 4460.048,4657.599 L4462.610,4657.599 C4465.172,4657.599 4470.935,4653.503 4470.935,4653.503 L4473.498,4651.966 C4476.060,4650.431 4473.498,4647.871 4473.498,4647.871 C4473.498,4647.871 4477.340,4645.311 4483.744,4645.199 C4490.150,4645.086 4485.025,4640.228 4485.025,4640.228 L4480.543,4637.119 L4483.744,4630.462 L4478.621,4626.367 L4473.498,4620.296 L4478.621,4620.296 L4483.089,4623.975 L4487.588,4626.367 L4491.431,4623.294 L4493.106,4620.296 L4499.116,4624.026 L4502.318,4624.026 C4502.318,4624.026 4506.161,4626.879 4507.570,4627.902 C4508.979,4628.927 4513.206,4627.902 4513.206,4627.902 L4520.251,4630.462 L4520.892,4632.511 C4521.532,4634.559 4524.094,4637.119 4524.094,4637.119 L4533.701,4641.727 L4538.826,4641.727 L4542.029,4645.199 L4545.871,4647.359 C4545.871,4647.359 4553.557,4647.871 4556.085,4649.438 C4557.829,4650.519 4560.840,4655.210 4562.540,4658.015 C4555.812,4660.607 4549.242,4663.260 4545.433,4664.734 C4538.064,4667.589 4522.098,4662.585 4517.186,4664.734 Z"/>
<path fill-rule="evenodd"  opacity="0.561" fill="rgb(255, 131, 97)"
 d="M3854.798,4486.814 C3854.798,4486.814 3864.199,4488.863 3864.199,4486.814 C3864.199,4484.766 3871.014,4479.995 3871.014,4479.995 L3871.014,4473.154 L3875.292,4470.389 L3884.695,4462.238 L3884.695,4451.404 L3890.664,4451.404 C3890.664,4451.404 3900.066,4447.226 3904.319,4444.482 C3908.597,4441.758 3904.319,4436.986 3904.319,4436.986 L3907.753,4429.429 L3917.128,4429.347 L3922.252,4424.985 L3933.371,4424.985 L3942.748,4419.414 L3947.027,4419.414 L3949.588,4424.985 L3947.871,4429.347 L3943.618,4429.429 L3939.340,4434.242 L3938.495,4440.385 L3934.217,4444.482 L3929.938,4447.226 L3928.247,4454.189 L3927.377,4458.818 L3922.252,4464.286 L3926.530,4483.394 L3929.938,4477.148 L3929.938,4470.389 L3936.778,4461.562 L3941.057,4453.369 L3941.057,4447.697 L3945.309,4447.697 L3954.711,4439.710 L3954.711,4435.614 L3961.552,4436.986 L3970.929,4429.429 L3989.580,4442.782 L3974.361,4454.722 L3983.917,4470.389 L3983.917,4461.562 L4004.798,4445.014 L3983.968,4425.025 L3983.917,4424.985 L3973.951,4415.092 L3958.657,4415.092 L3940.187,4410.648 L3882.286,4425.619 L3890.664,4429.429 L3890.664,4433.566 L3888.948,4437.662 L3880.416,4444.482 C3880.416,4444.482 3875.292,4445.178 3875.292,4447.226 C3875.292,4449.274 3874.447,4450.625 3874.447,4453.575 C3874.447,4456.503 3872.731,4457.466 3872.731,4457.466 L3865.891,4461.562 L3862.483,4465.658 L3862.483,4473.851 L3860.767,4481.346 L3854.798,4486.814 Z"/>
<path fill-rule="evenodd"  opacity="0.329" fill="rgb(255, 155, 116)"
 d="M3127.673,4772.182 L3161.219,4768.515 L3212.502,4770.153 L3249.132,4767.123 L3281.908,4762.063 L3330.107,4763.559 L3362.881,4757.496 L3395.657,4757.496 L3418.792,4752.439 L3458.046,4754.260 L3503.621,4749.386 L3555.676,4750.451 L3604.453,4760.487 L3676.482,4768.556 L3765.707,4758.173 C3769.833,4757.681 3774.345,4757.455 3778.855,4757.538 L3909.995,4769.539 L3767.597,4767.532 C3767.597,4767.532 3724.988,4778.407 3697.535,4780.393 L3669.676,4787.213 L3684.772,4798.887 L3720.824,4807.079 L3750.400,4801.446 L3840.369,4808.446 C3844.572,4808.077 3897.524,4797.792 3909.956,4795.959 L4038.588,4815.435 L3896.884,4806.690 C3896.884,4806.690 3841.591,4819.430 3815.872,4817.853 C3790.114,4816.254 3750.400,4810.493 3750.400,4810.493 L3705.940,4817.647 L3689.244,4817.586 L3669.657,4820.965 L3657.203,4820.413 C3657.203,4820.413 3646.290,4819.163 3636.921,4819.511 C3627.588,4819.860 3626.741,4825.266 3615.713,4824.304 C3604.685,4823.320 3558.260,4823.627 3550.663,4824.692 C3543.067,4825.757 3535.896,4824.017 3535.896,4824.017 L3523.556,4820.084 L3507.863,4813.613 L3478.635,4806.567 L3461.400,4802.308 C3461.400,4802.308 3444.819,4801.508 3437.455,4801.201 C3432.327,4800.996 3408.690,4804.335 3394.732,4806.404 C3388.215,4807.367 3381.044,4806.732 3375.606,4804.703 C3375.606,4804.703 3355.555,4802.370 3353.319,4802.984 C3351.083,4803.577 3335.042,4802.861 3310.672,4804.623 C3286.304,4806.404 3281.445,4801.119 3273.733,4802.922 C3266.021,4804.725 3242.847,4798.641 3231.318,4800.977 C3219.828,4803.312 3192.105,4809.332 3177.837,4811.401 C3163.570,4813.448 3121.928,4812.486 3111.361,4808.943 C3103.226,4806.200 3092.931,4806.997 3088.573,4807.509 L3088.573,4768.782 L3127.673,4772.182 Z"/>
<path fill-rule="evenodd"  opacity="0.329" fill="rgb(255, 155, 116)"
 d="M4532.550,4880.908 L4539.851,4879.003 L4541.054,4887.195 L4562.702,4892.909 L4595.853,4888.731 C4597.390,4888.547 4599.056,4888.526 4600.696,4888.670 L4647.630,4899.361 L4595.930,4894.568 C4595.930,4894.568 4575.742,4901.572 4566.340,4900.692 C4556.964,4899.811 4538.416,4891.865 4538.416,4891.865 L4526.247,4900.589 L4520.150,4900.548 L4513.001,4902.412 L4508.468,4902.105 C4508.468,4902.105 4504.470,4901.409 4501.064,4901.614 C4497.655,4901.798 4497.348,4904.767 4493.327,4904.235 C4489.305,4903.702 4472.345,4903.866 4469.577,4904.460 C4466.810,4905.034 4464.198,4904.071 4464.198,4904.071 L4459.689,4901.921 L4453.976,4898.377 L4451.388,4897.434 C4445.675,4897.906 4438.963,4897.825 4435.837,4897.149 C4431.944,4896.309 4425.359,4894.261 4420.518,4892.745 C4417.802,4893.278 4414.906,4893.913 4412.677,4894.404 C4410.295,4894.937 4407.682,4894.589 4405.684,4893.483 C4405.684,4893.483 4400.226,4892.520 4398.228,4892.479 C4396.180,4892.950 4393.437,4894.097 4387.341,4893.442 C4386.418,4893.339 4385.547,4893.257 4384.677,4893.176 C4383.806,4893.257 4382.934,4893.339 4382.011,4893.442 C4375.915,4894.097 4373.174,4892.950 4371.123,4892.479 C4369.125,4892.520 4363.669,4893.483 4363.669,4893.483 C4361.671,4894.589 4359.057,4894.937 4356.675,4894.404 C4354.446,4893.913 4351.551,4893.278 4348.835,4892.745 C4343.994,4894.261 4337.409,4896.309 4333.540,4897.149 C4330.415,4897.825 4323.678,4897.906 4317.965,4897.434 L4315.377,4898.377 L4309.664,4901.921 L4305.155,4904.071 C4305.155,4904.071 4302.541,4905.034 4299.775,4904.460 C4297.007,4903.866 4280.048,4903.702 4276.026,4904.235 C4272.004,4904.767 4271.697,4901.798 4268.290,4901.614 C4264.881,4901.409 4260.886,4902.105 4260.886,4902.105 L4256.350,4902.412 L4249.202,4900.548 L4243.106,4900.589 L4230.936,4891.865 C4230.936,4891.865 4212.388,4899.811 4203.011,4900.692 C4193.610,4901.572 4173.421,4894.568 4173.421,4894.568 L4121.722,4899.361 L4168.657,4888.670 C4170.296,4888.526 4171.962,4888.547 4173.498,4888.731 L4206.650,4892.909 L4228.298,4887.195 L4229.502,4879.003 L4236.803,4880.908 C4238.493,4881.358 4240.338,4881.666 4242.260,4881.829 L4246.180,4880.109 C4236.162,4879.024 4220.612,4873.064 4220.612,4873.064 L4168.657,4874.170 L4216.513,4867.575 C4218.153,4867.534 4219.792,4867.657 4221.303,4867.903 L4253.865,4873.617 L4280.151,4869.192 L4297.956,4863.684 L4316.940,4863.090 L4333.567,4865.773 L4347.887,4864.769 L4356.342,4867.534 L4368.305,4867.555 L4378.451,4870.381 L4384.677,4870.668 L4390.902,4870.381 L4401.046,4867.555 L4413.011,4867.534 L4421.466,4864.769 L4435.787,4865.773 L4452.413,4863.090 L4471.397,4863.684 L4489.201,4869.192 L4515.487,4873.617 L4548.048,4867.903 C4549.560,4867.657 4551.200,4867.534 4552.840,4867.575 L4600.696,4874.170 L4548.741,4873.064 C4548.741,4873.064 4533.190,4879.024 4523.172,4880.109 L4527.093,4881.829 C4529.014,4881.666 4530.859,4881.358 4532.550,4880.908 ZM4387.801,4880.621 C4386.981,4880.621 4385.854,4880.601 4384.677,4880.601 C4383.497,4880.601 4382.371,4880.621 4381.551,4880.621 C4381.397,4880.621 4381.167,4880.642 4380.911,4880.662 L4384.677,4881.133 L4388.441,4880.662 C4388.186,4880.642 4387.955,4880.621 4387.801,4880.621 Z"/>
<path fill-rule="evenodd"  opacity="0.329" fill="rgb(255, 155, 116)"
 d="M3928.299,4704.347 L3939.494,4703.324 L3941.338,4707.707 L3974.515,4710.779 L4025.344,4708.546 C4027.701,4708.444 4030.237,4708.424 4032.747,4708.506 L4104.711,4714.240 L4025.446,4711.659 C4025.446,4711.659 3994.499,4715.428 3980.101,4714.957 C3965.728,4714.486 3937.291,4710.225 3937.291,4710.225 L3918.641,4714.896 L3909.290,4714.875 L3898.325,4715.879 L3891.381,4715.715 C3891.381,4715.715 3885.258,4715.346 3880.032,4715.449 C3874.807,4715.551 3874.319,4717.149 3868.170,4716.861 C3861.996,4716.575 3835.993,4716.657 3831.767,4716.985 C3827.514,4717.291 3823.517,4716.760 3823.517,4716.760 L3816.600,4715.612 L3807.837,4713.708 L3803.866,4713.217 C3795.105,4713.462 3784.833,4713.421 3780.041,4713.053 C3774.073,4712.601 3763.978,4711.496 3756.549,4710.697 C3752.399,4710.984 3747.940,4711.312 3744.534,4711.578 C3740.869,4711.864 3736.873,4711.680 3733.800,4711.085 C3733.800,4711.085 3725.448,4710.574 3722.372,4710.554 C3719.247,4710.799 3715.045,4711.414 3705.694,4711.066 C3704.286,4711.005 3702.953,4710.964 3701.595,4710.922 C3700.263,4710.964 3698.931,4711.005 3697.522,4711.066 C3688.172,4711.414 3683.970,4710.799 3680.845,4710.554 C3677.770,4710.574 3669.393,4711.085 3669.393,4711.085 C3666.344,4711.680 3662.348,4711.864 3658.684,4711.578 C3655.276,4711.312 3650.818,4710.984 3646.669,4710.697 C3639.240,4711.496 3629.145,4712.601 3623.228,4713.053 C3618.436,4713.421 3608.112,4713.462 3599.350,4713.217 L3595.380,4713.708 L3586.618,4715.612 L3579.701,4716.760 C3579.701,4716.760 3575.704,4717.291 3571.451,4716.985 C3567.223,4716.657 3541.221,4716.575 3535.046,4716.861 C3528.898,4717.149 3528.412,4715.551 3523.186,4715.449 C3517.959,4715.346 3511.836,4715.715 3511.836,4715.715 L3504.892,4715.879 L3493.928,4714.875 L3484.577,4714.896 L3465.927,4710.225 C3465.927,4710.225 3437.490,4714.486 3423.117,4714.957 C3418.890,4715.101 3413.254,4714.875 3407.386,4714.486 L3407.386,4709.837 L3428.703,4710.779 L3461.878,4707.707 L3463.723,4703.324 L3474.919,4704.347 C3477.506,4704.574 3480.350,4704.737 3483.297,4704.840 L3489.290,4703.918 C3473.946,4703.324 3450.093,4700.130 3450.093,4700.130 L3407.386,4700.457 L3407.386,4698.942 L3443.818,4697.180 C3446.328,4697.159 3448.839,4697.220 3451.169,4697.365 L3501.075,4700.437 L3541.375,4698.061 L3568.659,4695.091 L3597.761,4694.783 L3623.253,4696.218 L3645.209,4695.685 L3658.171,4697.159 L3676.515,4697.180 L3692.065,4698.696 L3701.595,4698.838 L3711.151,4698.696 L3726.702,4697.180 L3745.045,4697.159 L3758.008,4695.685 L3779.964,4696.218 L3805.456,4694.783 L3834.558,4695.091 L3861.842,4698.061 L3902.141,4700.437 L3952.047,4697.365 C3954.379,4697.220 3956.889,4697.159 3959.401,4697.180 L4032.747,4700.724 L3953.124,4700.130 C3953.124,4700.130 3929.273,4703.324 3913.927,4703.918 L3919.922,4704.840 C3922.868,4704.737 3925.712,4704.574 3928.299,4704.347 ZM3706.387,4704.185 L3696.806,4704.185 C3696.575,4704.185 3696.215,4704.205 3695.832,4704.205 L3701.595,4704.451 L3707.385,4704.205 C3706.975,4704.205 3706.643,4704.185 3706.387,4704.185 Z"/>
<path fill-rule="evenodd"  fill="rgb(224, 90, 57)"
 d="M3579.418,4473.390 L3584.517,4482.012 L3593.483,4482.012 L3599.889,4482.954 L3608.854,4488.523 L3608.854,4476.195 L3615.414,4473.163 L3622.946,4473.163 L3622.946,4493.522 L3635.754,4493.522 L3642.185,4500.095 L3642.185,4493.522 L3635.754,4482.012 L3635.754,4467.019 L3643.441,4459.851 L3648.641,4446.232 L3648.615,4446.232 L3646.157,4448.464 L3623.124,4456.493 L3618.359,4460.937 L3606.446,4465.094 L3596.020,4464.049 L3589.744,4475.478 L3579.418,4473.390 Z"/>
<path fill-rule="evenodd"  fill="rgb(224, 90, 57)"
 d="M3504.739,4453.604 L3499.974,4453.604 L3499.974,4473.510 L3512.783,4473.510 L3519.214,4480.085 L3519.214,4473.510 L3512.783,4462.000 L3512.783,4447.009 L3520.059,4440.230 L3512.681,4438.305 L3504.739,4453.604 Z"/>
<path fill-rule="evenodd"  fill="rgb(224, 90, 57)"
 d="M3681.921,4442.901 C3681.921,4442.901 3689.990,4450.888 3689.990,4453.509 L3689.990,4458.793 L3695.115,4465.879 L3701.083,4471.634 L3701.083,4476.959 C3701.083,4476.959 3706.208,4481.403 3708.770,4482.755 L3711.331,4484.127 C3711.331,4484.127 3715.379,4484.557 3721.579,4486.769 C3727.779,4488.981 3732.671,4494.367 3732.671,4494.367 L3732.671,4499.139 L3747.736,4503.891 L3747.736,4508.663 L3754.883,4513.476 L3759.905,4518.104 L3765.976,4522.364 L3770.254,4522.364 L3770.254,4526.665 L3785.626,4528.959 L3795.874,4528.959 L3807.837,4535.308 C3807.837,4535.308 3810.836,4539.424 3814.473,4540.100 C3818.086,4540.796 3821.492,4545.445 3821.492,4545.445 L3821.492,4551.180 L3827.462,4553.249 L3818.930,4536.147 L3814.473,4528.959 L3803.509,4526.665 L3798.435,4523.040 L3792.466,4521.668 L3785.626,4518.104 L3780.502,4518.104 L3772.816,4512.800 L3767.694,4508.663 L3763.414,4499.139 L3754.705,4491.644 C3754.705,4491.644 3745.482,4486.114 3742.920,4485.807 C3740.358,4485.500 3734.389,4479.990 3734.389,4479.990 L3729.265,4476.959 L3725.857,4471.634 L3724.140,4465.879 L3724.985,4462.971 L3724.140,4458.793 L3723.295,4453.509 L3729.265,4450.028 L3729.265,4444.990 L3730.110,4439.030 L3732.774,4434.586 L3720.067,4434.586 L3713.713,4441.856 L3704.157,4439.787 L3697.010,4438.743 L3687.480,4438.743 L3681.921,4442.901 Z"/>
<path fill-rule="evenodd"  fill="rgb(224, 90, 57)"
 d="M3109.946,4601.053 L3109.946,4595.319 C3109.946,4595.319 3113.348,4590.669 3116.954,4589.973 C3120.586,4589.298 3123.578,4585.181 3123.578,4585.181 L3135.545,4578.833 L3145.800,4578.833 L3161.169,4576.538 L3161.169,4572.237 L3165.441,4572.237 L3171.528,4567.978 L3176.539,4563.349 L3183.700,4558.536 L3183.700,4553.765 L3198.762,4549.013 L3198.762,4544.241 C3198.762,4544.241 3203.648,4538.855 3209.836,4536.643 C3216.051,4534.431 3220.090,4534.001 3220.090,4534.001 L3222.648,4532.629 C3225.230,4531.278 3230.345,4526.834 3230.345,4526.834 L3230.345,4521.509 L3236.304,4515.754 L3241.444,4508.668 L3241.444,4503.834 L3238.478,4504.346 L3202.879,4486.857 L3200.630,4487.738 L3201.320,4488.904 L3202.164,4494.865 L3202.164,4499.902 L3208.123,4503.384 L3207.279,4508.668 L3206.434,4512.846 L3207.279,4515.754 L3205.566,4521.509 L3202.164,4526.834 L3197.049,4529.864 C3197.049,4529.864 3191.065,4535.373 3188.507,4535.681 C3185.951,4535.988 3176.718,4541.518 3176.718,4541.518 L3168.023,4549.013 L3163.727,4558.536 L3158.613,4562.673 L3150.914,4567.978 L3145.800,4567.978 L3138.973,4571.541 L3132.987,4572.913 L3127.924,4576.538 L3116.954,4578.833 L3112.503,4586.020 L3103.962,4603.122 L3109.946,4601.053 Z"/>
<path fill-rule="evenodd"  fill="rgb(224, 90, 57)"
 d="M3228.863,4584.700 L3228.863,4578.964 C3228.863,4578.964 3232.264,4574.316 3235.869,4573.620 C3239.502,4572.944 3242.492,4568.828 3242.492,4568.828 L3254.460,4562.478 L3264.716,4562.478 L3280.085,4560.185 L3280.085,4555.884 L3284.356,4555.884 L3290.442,4551.624 L3295.455,4546.995 L3302.615,4542.182 L3302.615,4537.410 L3317.679,4532.660 L3317.679,4527.888 C3317.679,4527.888 3322.563,4522.501 3328.751,4520.290 C3334.965,4518.078 3339.006,4517.648 3339.006,4517.648 L3341.563,4516.276 C3344.146,4514.923 3349.262,4510.480 3349.262,4510.480 L3349.262,4505.155 L3349.747,4504.704 L3342.689,4502.595 L3323.815,4506.178 L3321.079,4510.480 L3315.965,4513.511 C3315.965,4513.511 3309.980,4519.020 3307.424,4519.327 C3304.867,4519.634 3295.634,4525.163 3295.634,4525.163 L3286.939,4532.660 L3282.643,4542.182 L3277.528,4546.320 L3269.830,4551.624 L3264.716,4551.624 L3257.887,4555.188 L3251.904,4556.559 L3246.841,4560.185 L3235.869,4562.478 L3231.419,4569.667 L3222.878,4586.767 L3228.863,4584.700 Z"/>
<path fill-rule="evenodd"  fill="rgb(224, 90, 57)"
 d="M3814.166,4486.095 L3817.702,4492.116 L3817.702,4485.808 C3817.702,4485.808 3816.242,4485.952 3814.166,4486.095 Z"/>
<path fill-rule="evenodd"  fill="rgb(255, 134, 95)"
 d="M4221.534,4532.729 C4215.824,4523.529 4242.441,4523.195 4234.257,4516.393 L4240.792,4515.062 L4241.585,4521.122 L4252.780,4521.122 L4259.280,4514.311 L4270.680,4510.293 L4276.769,4495.091 L4283.302,4489.622 L4290.783,4485.608 L4300.108,4482.598 L4305.718,4476.556 L4314.122,4470.268 L4320.655,4470.268 L4329.979,4455.482 L4329.979,4469.019 C4329.979,4469.019 4338.896,4480.857 4329.979,4481.594 C4321.064,4482.331 4315.940,4486.386 4315.940,4486.386 L4315.940,4492.204 C4315.940,4492.204 4313.379,4500.886 4309.535,4500.313 C4305.692,4499.740 4312.098,4495.643 4305.692,4499.740 C4299.287,4503.836 4290.321,4510.287 4290.321,4510.287 L4277.512,4518.172 L4277.512,4524.500 L4290.321,4524.500 C4290.321,4524.500 4292.883,4519.565 4296.727,4524.500 C4300.568,4529.437 4305.718,4535.355 4305.718,4535.355 L4312.098,4541.704 L4323.627,4541.704 L4333.950,4551.841 L4351.808,4551.841 L4351.808,4559.645 L4358.212,4568.554 L4358.212,4577.565 C4358.212,4577.565 4363.335,4583.709 4367.179,4583.198 C4371.022,4582.685 4379.987,4583.198 4379.987,4583.198 L4379.987,4587.805 L4358.212,4587.805 L4349.245,4583.198 L4340.279,4568.554 L4328.750,4566.301 C4328.750,4566.301 4326.188,4560.157 4319.783,4559.645 C4313.379,4559.133 4301.849,4556.060 4301.849,4556.060 L4290.321,4551.841 L4277.512,4541.704 L4258.297,4541.704 C4258.297,4541.704 4223.150,4533.123 4221.534,4532.729 Z"/>
<path fill-rule="evenodd"  fill="rgb(255, 134, 95)"
 d="M4827.620,4571.667 C4821.910,4562.467 4848.528,4562.133 4840.344,4555.331 L4846.878,4554.000 L4847.672,4560.059 L4858.868,4560.059 L4865.366,4553.249 L4876.767,4549.231 L4882.855,4534.029 L4889.388,4528.560 L4896.868,4524.546 L4906.195,4521.536 L4911.804,4515.494 L4920.208,4509.206 L4926.740,4509.206 L4936.066,4494.420 L4936.066,4507.957 C4936.066,4507.957 4944.981,4519.795 4936.066,4520.532 C4927.151,4521.269 4922.026,4525.324 4922.026,4525.324 L4922.026,4531.141 C4922.026,4531.141 4919.464,4539.824 4915.622,4539.251 C4911.780,4538.677 4918.183,4534.581 4911.780,4538.677 C4905.374,4542.774 4896.407,4549.225 4896.407,4549.225 L4883.599,4557.110 L4883.599,4563.438 L4896.407,4563.438 C4896.407,4563.438 4898.970,4558.503 4902.812,4563.438 C4906.655,4568.374 4911.804,4574.293 4911.804,4574.293 L4918.183,4580.642 L4929.713,4580.642 L4940.036,4590.779 L4957.893,4590.779 L4957.893,4598.583 L4964.297,4607.491 L4964.297,4616.503 C4964.297,4616.503 4969.422,4622.647 4973.264,4622.135 C4977.107,4621.623 4986.074,4622.135 4986.074,4622.135 L4986.074,4626.743 L4964.297,4626.743 L4955.331,4622.135 L4946.365,4607.491 L4934.836,4605.239 C4934.836,4605.239 4932.275,4599.095 4925.870,4598.583 C4919.464,4598.071 4907.936,4594.998 4907.936,4594.998 L4896.407,4590.779 L4883.599,4580.642 L4864.384,4580.642 C4864.384,4580.642 4829.235,4572.061 4827.620,4571.667 Z"/>
<path fill-rule="evenodd"  opacity="0.329" fill="rgb(255, 155, 116)"
 d="M3088.499,4951.560 L3117.060,4957.483 L3141.668,4952.889 L3157.980,4957.483 L3199.410,4965.677 L3211.440,4965.677 L3223.470,4965.677 L3242.204,4956.986 L3262.907,4965.677 L3279.356,4965.677 L3307.335,4965.677 L3319.610,4965.677 L3350.300,4972.338 L3377.500,4972.338 L3395.909,4972.338 L3416.945,4977.965 C3416.945,4977.965 3464.157,4979.329 3466.560,4976.599 C3468.964,4973.868 3488.768,4970.805 3491.142,4972.338 C3493.516,4973.868 3501.240,4976.267 3504.538,4972.338 C3507.837,4968.406 3528.297,4949.733 3534.435,4951.560 C3540.572,4953.388 3551.001,4957.483 3551.001,4957.483 L3580.018,4963.300 L3615.250,4963.300 L3624.456,4963.300 L3648.233,4963.300 L3663.523,4972.338 L3677.792,4972.338 L3694.738,4972.338 L3708.231,4978.306 C3708.231,4978.306 3703.020,4973.186 3697.496,4978.306 C3691.972,4983.426 3677.935,4977.282 3677.792,4978.306 L3677.650,4979.329 L3659.011,4980.370 L3648.233,4980.370 L3624.456,4980.370 L3598.370,4986.157 L3575.783,4986.157 L3551.001,4986.157 L3536.481,4986.157 L3523.979,4995.252 C3523.979,4995.252 3500.916,4994.349 3496.194,4990.252 L3466.560,4997.080 L3479.194,5006.637 L3491.142,5013.463 L3510.783,5013.463 L3534.435,5013.463 L3551.001,4999.004 L3575.783,5013.463 L3598.370,5013.463 L3624.456,5013.463 L3659.011,5008.003 C3659.011,5008.003 3686.653,4998.199 3697.496,4999.004 C3708.341,4999.809 3726.757,5021.655 3726.757,5021.655 L3741.206,5021.655 L3767.199,5021.655 C3767.199,5021.655 3781.803,5016.195 3785.991,5016.195 C3790.178,5016.195 3814.508,5021.655 3814.508,5021.655 L3854.998,5021.655 L3883.994,5027.116 C3883.994,5027.116 3904.112,5025.752 3913.638,5027.116 C3923.164,5028.483 3944.208,5021.655 3944.208,5021.655 L3948.824,5022.619 C3953.968,5023.691 3953.344,5028.677 3948.005,5029.164 L3948.005,5029.164 L3937.441,5038.039 L3961.378,5038.039 C3970.222,5038.039 3996.329,5044.867 3996.329,5044.867 L4028.153,5050.327 L4057.014,5045.909 C4057.014,5045.909 4063.217,5051.693 4074.005,5054.424 C4084.795,5057.155 4120.303,5054.424 4120.303,5054.424 C4120.303,5054.424 4155.892,5048.962 4158.194,5048.962 L4185.047,5048.962 C4195.276,5048.962 4216.715,5055.638 4216.715,5055.638 L4174.817,5055.107 C4174.817,5055.107 4142.797,5065.347 4135.279,5065.347 L4120.303,5065.347 L4102.185,5070.808 C4102.185,5070.808 4146.173,5063.981 4166.632,5072.173 C4187.092,5080.365 4135.279,5083.096 4135.279,5083.096 L4158.194,5091.176 L4205.506,5091.176 L4236.195,5091.176 L4263.713,5080.365 L4301.569,5079.001 L4334.401,5076.270 L4365.090,5074.904 L4406.418,5079.001 L4488.052,5069.442 L4540.665,5089.532 L4659.118,5108.645 L4744.895,5094.993 L4795.952,5075.878 L4904.193,5082.704 L5006.574,5046.232 L5006.574,5212.000 L3088.499,5212.000 L3088.499,4951.560 Z"/>
<path fill-rule="evenodd"  opacity="0.678" fill="rgb(255, 155, 116)"
 d="M3556.306,5065.357 C3524.129,5065.357 3498.120,5062.272 3498.120,5058.456 C3498.120,5054.640 3524.129,5051.555 3556.306,5051.555 C3588.484,5051.555 3614.494,5054.640 3614.494,5058.456 C3614.494,5062.272 3588.484,5065.357 3556.306,5065.357 Z"/>
<path fill-rule="evenodd"  opacity="0.678" fill="rgb(255, 155, 116)"
 d="M3833.413,5088.586 C3801.234,5088.586 3775.225,5085.502 3775.225,5081.686 C3775.225,5077.869 3801.234,5074.784 3833.413,5074.784 C3865.590,5074.784 3891.600,5077.869 3891.600,5081.686 C3891.600,5085.502 3865.590,5088.586 3833.413,5088.586 Z"/>
<path fill-rule="evenodd"  opacity="0.678" fill="rgb(255, 155, 116)"
 d="M4084.653,4840.527 C4062.947,4840.527 4045.401,4838.446 4045.401,4835.872 C4045.401,4833.297 4062.947,4831.216 4084.653,4831.216 C4106.360,4831.216 4123.906,4833.297 4123.906,4835.872 C4123.906,4838.446 4106.360,4840.527 4084.653,4840.527 Z"/>
<path fill-rule="evenodd"  opacity="0.678" fill="rgb(255, 155, 116)"
 d="M4066.141,4764.335 C4055.287,4764.335 4046.515,4763.294 4046.515,4762.007 C4046.515,4760.719 4055.287,4759.679 4066.141,4759.679 C4076.994,4759.679 4085.766,4760.719 4085.766,4762.007 C4085.766,4763.294 4076.994,4764.335 4066.141,4764.335 Z"/>
<path fill-rule="evenodd"  opacity="0.678" fill="rgb(255, 155, 116)"
 d="M4338.435,5040.498 C4338.435,5042.535 4368.010,5044.185 4404.494,5044.185 C4440.976,5044.185 4470.551,5042.535 4470.551,5040.498 C4470.551,5038.464 4440.976,5036.814 4404.494,5036.814 C4368.010,5036.814 4338.435,5038.464 4338.435,5040.498 Z"/>
<path fill-rule="evenodd"  opacity="0.329" fill="rgb(255, 155, 116)"
 d="M4105.005,4699.604 C4105.005,4699.604 4140.197,4684.367 4157.386,4684.782 C4174.574,4685.195 4209.703,4697.324 4209.703,4697.324 L4230.060,4679.982 L4241.110,4679.277 L4253.707,4675.014 L4261.982,4675.014 C4261.982,4675.014 4269.347,4675.756 4275.486,4674.987 C4281.625,4674.216 4281.600,4668.779 4288.992,4669.243 C4296.384,4669.709 4327.051,4667.302 4331.962,4665.895 C4336.873,4664.485 4341.783,4665.895 4341.783,4665.895 L4350.377,4669.243 L4361.428,4674.987 L4381.512,4680.686 L4393.348,4684.169 C4393.348,4684.169 4404.397,4684.209 4409.309,4684.169 C4412.720,4684.143 4427.988,4679.733 4436.988,4677.045 C4441.195,4675.788 4446.009,4676.095 4449.824,4677.869 C4449.824,4677.869 4463.328,4679.277 4464.741,4678.574 C4466.152,4677.869 4476.833,4677.869 4492.754,4674.987 C4508.672,4672.104 4512.438,4677.165 4517.348,4675.014 C4522.260,4672.864 4538.221,4677.869 4545.587,4675.014 C4549.395,4673.538 4555.961,4670.887 4562.687,4668.295 C4568.972,4665.873 4575.395,4663.505 4579.841,4662.200 C4589.050,4659.497 4616.671,4658.562 4624.038,4661.630 C4631.403,4664.697 4640.612,4661.630 4640.612,4661.630 C4640.612,4661.630 4655.344,4662.788 4664.551,4662.200 C4673.759,4661.611 4798.651,4695.562 4798.651,4695.562 L4688.444,4690.410 L4672.775,4683.631 C4664.428,4681.156 4653.800,4680.777 4644.674,4682.627 L4620.566,4687.517 C4614.729,4688.700 4608.407,4689.337 4601.995,4689.385 L4568.433,4700.173 L4530.018,4694.473 L4507.736,4698.605 L4473.674,4696.753 L4449.344,4700.173 L4427.576,4705.875 L4395.563,4704.163 L4373.794,4711.005 L4352.026,4711.005 L4336.658,4716.706 L4310.589,4714.646 L4280.316,4720.126 L4245.754,4718.912 L4213.340,4707.585 L4165.514,4698.464 L4106.254,4710.180 C4103.510,4710.722 4100.513,4710.965 4097.516,4710.888 L4010.411,4697.324 L4105.005,4699.604 Z"/>
<path fill-rule="evenodd"  stroke="rgb(255, 155, 116)" stroke-width="1px" stroke-linecap="butt" stroke-linejoin="miter" fill="none"
 d=""/>
<path fill-rule="evenodd"  fill="url(#PSgrad_3)"
 d="M3615.287,5048.308 L3611.549,5044.804 L3593.862,5040.219 L3583.150,5048.308 L3578.685,5055.551 L3586.720,5064.178 L3596.986,5064.178 L3602.789,5064.178 L3615.287,5064.178 L3621.537,5055.551 "/>
<path fill-rule="evenodd"  fill="url(#PSgrad_4)"
 d="M3615.287,5048.308 L3611.549,5044.804 L3593.862,5040.219 L3596.986,5064.178 L3602.789,5064.178 L3615.287,5064.178 L3621.537,5055.551 "/>
<path fill-rule="evenodd"  fill="url(#PSgrad_5)"
 d="M3595.340,5051.554 L3596.986,5064.178 L3602.789,5064.178 L3615.287,5064.178 L3621.537,5055.551 L3595.340,5051.554 Z"/>
<path fill-rule="evenodd"  fill="url(#PSgrad_4)"
 d="M3891.600,5072.092 L3879.125,5062.499 L3870.102,5064.498 L3861.025,5072.952 L3864.999,5078.968 L3872.973,5081.686 L3882.499,5081.358 L3886.109,5080.555 "/>
<path fill-rule="evenodd"  fill="url(#PSgrad_4)"
 d="M3876.312,5073.092 L3870.102,5064.498 L3861.025,5072.952 L3864.999,5078.968 L3872.973,5081.686 L3876.312,5073.092 Z"/>
<path fill-rule="evenodd"  fill="url(#PSgrad_4)"
 d="M4461.436,5032.093 L4443.522,5034.303 L4440.706,5038.873 L4445.774,5044.313 L4452.250,5044.313 L4455.910,5044.313 L4463.793,5044.313 L4467.736,5038.873 "/>
<path fill-rule="evenodd"  fill="url(#PSgrad_4)"
 d="M4127.987,4829.024 L4126.494,4827.624 L4123.350,4824.677 L4119.425,4825.792 L4115.145,4829.024 L4116.571,4835.366 L4120.674,4835.366 L4122.993,4835.366 L4127.987,4835.366 L4130.485,4831.919 "/>
<path fill-rule="evenodd"  opacity="0.678" fill="rgb(255, 155, 116)"
 d="M4452.668,4772.911 C4452.668,4774.197 4461.455,4775.239 4472.294,4775.239 C4483.134,4775.239 4491.920,4774.197 4491.920,4772.911 C4491.920,4771.626 4483.134,4770.584 4472.294,4770.584 C4461.455,4770.584 4452.668,4771.626 4452.668,4772.911 Z"/>
<path fill-rule="evenodd"  fill="url(#PSgrad_4)"
 d="M4488.330,4767.259 L4479.768,4764.026 L4475.486,4765.085 L4475.486,4767.259 L4473.703,4770.153 L4476.914,4773.601 L4481.016,4773.601 L4483.335,4773.601 L4488.330,4773.601 L4490.827,4770.153 L4490.114,4767.259 "/>
<path fill-rule="evenodd"  opacity="0.678" fill="rgb(255, 155, 116)"
 d="M4869.879,4845.264 C4869.879,4846.550 4878.667,4847.592 4889.505,4847.592 C4900.345,4847.592 4909.131,4846.550 4909.131,4845.264 C4909.131,4843.979 4900.345,4842.937 4889.505,4842.937 C4878.667,4842.937 4869.879,4843.979 4869.879,4845.264 Z"/>
<path fill-rule="evenodd"  fill="url(#PSgrad_4)"
 d="M4905.541,4839.611 L4896.980,4836.378 L4892.698,4837.438 L4892.698,4839.611 L4890.915,4842.506 L4894.125,4845.953 L4898.228,4845.953 L4900.547,4845.953 L4905.541,4845.953 L4908.039,4842.506 L4907.326,4839.611 "/>
<path fill-rule="evenodd"  opacity="0.678" fill="rgb(255, 155, 116)"
 d="M3156.884,4725.471 C3156.884,4726.757 3165.672,4727.799 3176.510,4727.799 C3187.349,4727.799 3196.136,4726.757 3196.136,4725.471 C3196.136,4724.186 3187.349,4723.143 3176.510,4723.143 C3165.672,4723.143 3156.884,4724.186 3156.884,4725.471 Z"/>
<path fill-rule="evenodd"  fill="url(#PSgrad_4)"
 d="M3192.546,4719.819 L3183.983,4716.586 L3179.703,4717.645 L3179.703,4719.819 L3177.920,4722.713 L3181.130,4726.160 L3185.232,4726.160 L3187.551,4726.160 L3192.546,4726.160 L3195.043,4722.713 L3194.329,4719.819 "/>
<path fill-rule="evenodd"  fill="url(#PSgrad_4)"
 d="M4084.455,4757.632 L4083.689,4756.915 L4082.078,4755.405 L4080.066,4755.976 L4077.873,4756.519 L4077.873,4757.632 L4076.959,4759.116 L4078.604,4760.883 L4080.707,4760.883 L4081.895,4760.883 L4084.455,4760.883 L4085.734,4759.116 L4085.369,4757.632 "/>
<path fill-rule="evenodd"  fill="rgb(224, 90, 57)"
 d="M4108.111,4559.520 L4103.705,4556.734 L4113.361,4563.781 L4120.609,4568.533 L4134.977,4577.915 L4142.018,4578.263 L4152.263,4582.339 L4157.386,4580.516 L4162.507,4588.505 L4174.877,4588.505 L4174.877,4593.195 L4183.893,4595.141 L4199.642,4599.751 L4191.781,4592.602 L4187.298,4588.505 L4179.154,4580.516 L4165.068,4577.915 L4165.068,4571.586 L4153.466,4566.710 L4150.111,4546.452 C4145.451,4546.452 4140.765,4550.447 4140.765,4550.447 L4132.363,4555.465 C4132.363,4555.465 4125.833,4558.496 4123.041,4559.520 C4120.250,4560.524 4108.111,4559.520 4108.111,4559.520 Z"/>
<path fill-rule="evenodd"  fill="rgb(224, 90, 57)"
 d="M4008.127,4578.704 L4010.406,4583.005 L4024.210,4583.005 L4042.419,4580.650 L4045.391,4585.279 L4046.517,4593.268 L4066.134,4604.513 C4066.134,4604.513 4072.871,4609.634 4076.968,4609.204 C4081.040,4608.774 4085.727,4609.204 4085.779,4614.776 C4085.804,4620.347 4094.640,4612.931 4094.640,4612.931 L4085.727,4609.204 L4071.591,4599.904 L4066.134,4591.157 L4065.187,4583.005 L4043.059,4572.682 L4034.327,4572.682 L4013.552,4576.909 C4013.552,4576.909 4010.509,4579.276 4008.127,4578.704 Z"/>
<path fill-rule="evenodd"  opacity="0.502" fill="rgb(246, 149, 94)"
 d="M3088.499,3910.499 L4297.425,3910.499 L5008.499,3910.499 L5008.499,5204.999 L3088.499,5204.999 L3088.499,3910.499 Z"/>
</svg>