<svg id="like" xmlns="http://www.w3.org/2000/svg" width="58.12" height="58" viewBox="0 0 58.12 58">
  <defs>
    <style>
      .cls-1 {
        fill: #73121d;
      }

      .cls-1, .cls-10, .cls-11, .cls-2, .cls-3, .cls-4, .cls-5, .cls-6, .cls-7, .cls-8, .cls-9 {
        fill-rule: evenodd;
      }

      .cls-2 {
        fill: #c33020;
      }

      .cls-3 {
        fill: #00b96f;
      }

      .cls-4 {
        fill: #54d680;
      }

      .cls-5 {
        fill: #ffe49f;
      }

      .cls-6 {
        fill: #fff5f5;
      }

      .cls-7 {
        fill: #ffdfcf;
      }

      .cls-8 {
        fill: #ffeee6;
      }

      .cls-9 {
        fill: #ffc9c0;
      }

      .cls-10 {
        fill: #ff393a;
      }

      .cls-11 {
        fill: #ff6466;
      }
    </style>
  </defs>
  <path id="Path_1128" data-name="Path 1128" class="cls-1" d="M4046.93,348.314c-15.61,0-28.31-13.01-28.31-29s12.7-29,28.31-29,28.31,13.008,28.31,29S4062.54,348.314,4046.93,348.314Z" transform="translate(-4018.63 -290.313)"/>
  <path id="Path_1146" data-name="Path 1146" class="cls-2" d="M4045.84,290.315h0v58h0A29,29,0,1,0,4045.84,290.315Z" transform="translate(-4018.63 -290.313)"/>
  <path id="Path_1137" data-name="Path 1137" class="cls-3" d="M4072.5,294.536a14.415,14.415,0,1,1-20.39,0A14.427,14.427,0,0,1,4072.5,294.536Z" transform="translate(-4018.63 -290.313)"/>
  <path id="Path_1138" data-name="Path 1138" class="cls-4" d="M4072.5,294.536a12.517,12.517,0,1,1-18.86-1.33,14.413,14.413,0,0,1,18.86,1.33h0Z" transform="translate(-4018.63 -290.313)"/>
  <path id="Path_1139" data-name="Path 1139" class="cls-5" d="M4076.1,298.411l-11.72,11.717a2.122,2.122,0,0,1-3,0l-5.83-5.833a2.116,2.116,0,0,1,2.99-3l4.34,4.336,10.22-10.22a2.12,2.12,0,0,1,3,3h0Z" transform="translate(-4018.63 -290.313)"/>
  <path id="Path_1140" data-name="Path 1140" class="cls-6" d="M4076.1,295.415a2.131,2.131,0,0,1,0,3l-10.09,10.082a2.11,2.11,0,0,1-2.99,0l-5.84-5.833a2.133,2.133,0,0,1-.57-1.935,2.1,2.1,0,0,1,1.93.575l4.34,4.336,10.22-10.221a2.123,2.123,0,0,1,3,0h0Z" transform="translate(-4018.63 -290.313)"/>
  <path id="Path_1141" data-name="Path 1141" class="cls-7" d="M4065.35,318.988a0.293,0.293,0,0,0,0,.532,2.235,2.235,0,0,1,1.27,1.992v1.128a2.233,2.233,0,0,1-1.27,1.991,0.294,0.294,0,0,0,0,.533,2.232,2.232,0,0,1,1.27,1.991v1.129a2.232,2.232,0,0,1-1.27,1.99,0.291,0.291,0,0,0-.17.266,0.288,0.288,0,0,0,.17.266,2.237,2.237,0,0,1,1.27,1.992v1.129a2.329,2.329,0,0,1-2.4,2.257h-12.83a8.675,8.675,0,0,1-5.01-1.58,8.637,8.637,0,0,0-5-1.58h-9.83V318.352h8.52a4.853,4.853,0,0,0,4.16-2.258l4.07-6.613a3.289,3.289,0,0,0,.48-1.694v-3.77a1.751,1.751,0,0,1,1.8-1.692,4.081,4.081,0,0,1,4.2,3.95V308.4a6.438,6.438,0,0,1-.97,3.4l-0.8,1.3a0.337,0.337,0,0,0,.31.508h10.9a2.329,2.329,0,0,1,2.4,2.258V317a2.233,2.233,0,0,1-1.27,1.991h0Z" transform="translate(-4018.63 -290.313)"/>
  <path id="Path_1142" data-name="Path 1142" class="cls-8" d="M4051.05,302.34v2.4a1.2,1.2,0,0,1-1.2,1.2h-1.02v-2.282a1.8,1.8,0,0,1,1.8-1.8c0.11,0,.22.006,0.33,0.013a1.21,1.21,0,0,1,.09.467h0Z" transform="translate(-4018.63 -290.313)"/>
  <path id="Path_1143" data-name="Path 1143" class="cls-9" d="M4057.01,317.63a1.2,1.2,0,0,1,1.2-1.2h8.41a2.392,2.392,0,0,1-1.27,2.119,0.31,0.31,0,0,0-.17.283h-6.97A1.2,1.2,0,0,1,4057.01,317.63ZM4064.22,333h-12.83a8.319,8.319,0,0,1-5.01-1.682,8.29,8.29,0,0,0-5-1.682h-9.83v3.844h9.83a8.283,8.283,0,0,1,5,1.682,8.324,8.324,0,0,0,5.01,1.681h12.83a2.4,2.4,0,0,0,2.4-2.4v-1.2a2.38,2.38,0,0,0-.4-1.318,2.392,2.392,0,0,1-2,1.078h0Zm-7.21-3.364a1.2,1.2,0,0,0,1.2,1.2h6.97a0.313,0.313,0,0,1,.17-0.284,2.391,2.391,0,0,0,1.27-2.119h-8.41a1.2,1.2,0,0,0-1.2,1.2h0Zm0-6a1.2,1.2,0,0,0,1.2,1.2h6.97a0.311,0.311,0,0,1,.17-0.283,2.392,2.392,0,0,0,1.27-2.119h-8.41a1.2,1.2,0,0,0-1.2,1.2h0Z" transform="translate(-4018.63 -290.313)"/>
  <path id="Path_1144" data-name="Path 1144" class="cls-10" d="M4037.58,315.852v19.7a1.8,1.8,0,0,1-1.8,1.8h-6.01a1.793,1.793,0,0,1-1.73-1.322h-4.29a29.458,29.458,0,0,1-4.73-20.657h9.02a1.793,1.793,0,0,1,1.73-1.322h6.01a1.8,1.8,0,0,1,1.8,1.8h0Z" transform="translate(-4018.63 -290.313)"/>
  <path id="Path_1145" data-name="Path 1145" class="cls-11" d="M4018.72,319.723a29.167,29.167,0,0,1,.3-4.2h5.35v14.736a1.806,1.806,0,0,1-1.81,1.8h-1.14a29.38,29.38,0,0,1-2.7-12.334h0Zm9.25-3.723v15.613a1.8,1.8,0,0,0,1.8,1.8h6.01a1.8,1.8,0,0,0,1.8-1.8V316a1.8,1.8,0,0,0-1.8-1.8h-6.01A1.8,1.8,0,0,0,4027.97,316Z" transform="translate(-4018.63 -290.313)"/>
</svg>
