<svg xmlns="http://www.w3.org/2000/svg" width="113.09" height="113.094" viewBox="0 0 113.09 113.094">
  <defs>
    <style>
      .cls-1 {
        fill: #b8b8b8;
      }

      .cls-1, .cls-2, .cls-3 {
        fill-rule: evenodd;
      }

      .cls-2 {
        fill: #fff;
      }

      .cls-3 {
        fill: #ce00f5;
      }
    </style>
  </defs>
  <path id="Path_784" data-name="Path 784" class="cls-1" d="M1271.46,438.52c0,4.87-4.84,9.04-6.04,13.532-1.24,4.649.83,10.674-1.52,14.744-2.39,4.128-8.67,5.331-12.02,8.681s-4.55,9.628-8.68,12.017c-4.07,2.354-10.1.281-14.75,1.523-4.49,1.2-8.66,6.045-13.53,6.045s-9.04-4.844-13.53-6.045c-4.65-1.242-10.68.831-14.74-1.523-4.13-2.389-5.34-8.666-8.69-12.017s-9.62-4.553-12.01-8.681c-2.36-4.07-.28-10.095-1.53-14.744-1.2-4.492-6.04-8.662-6.04-13.532s4.84-9.041,6.04-13.533c1.25-4.648-.83-10.674,1.53-14.744,2.39-4.128,8.66-5.331,12.01-8.681s4.56-9.629,8.69-12.017c4.06-2.354,10.09-.28,14.74-1.523,4.49-1.2,8.66-6.045,13.53-6.045s9.04,4.844,13.53,6.045c4.65,1.243,10.68-.831,14.75,1.523,4.13,2.389,5.33,8.667,8.68,12.017s9.63,4.553,12.02,8.682c2.35,4.069.28,10.095,1.52,14.743C1266.62,429.479,1271.46,433.648,1271.46,438.52Z" transform="translate(-1158.38 -381.969)"/>
  <path class="cls-2" d="M1230.44,476.374A40.913,40.913,0,1,1,1252.78,423,40.871,40.871,0,0,1,1230.44,476.374Z" transform="translate(-1158.38 -381.969)"/>
  <path id="Path_785" data-name="Path 785" class="cls-3" d="M1215.53,483.406a0.42,0.42,0,0,1-.42-0.419,0.414,0.414,0,0,1,.41-0.429c0.47-.007.94-0.02,1.4-0.041a0.431,0.431,0,0,1,.45.4,0.425,0.425,0,0,1-.41.443c-0.47.021-.95,0.035-1.42,0.042h-0.01Zm-3.11-.065-0.02,0c-0.47-.025-0.95-0.059-1.42-0.1a0.424,0.424,0,1,1,.07-0.845c0.46,0.039.93,0.074,1.4,0.1A0.424,0.424,0,0,1,1212.42,483.341Zm7.62-.223a0.425,0.425,0,0,1-.05-0.846c0.46-.052.93-0.113,1.39-0.181a0.424,0.424,0,1,1,.12.839q-0.7.1-1.41,0.184A0.281,0.281,0,0,1,1220.04,483.118Zm-12.11-.255c-0.02,0-.04,0-0.07,0-0.47-.074-0.94-0.156-1.4-0.245a0.424,0.424,0,1,1,.16-0.833c0.45,0.086.91,0.168,1.37,0.241a0.426,0.426,0,0,1,.36.484A0.435,0.435,0,0,1,1207.93,482.863Zm16.57-.488a0.412,0.412,0,0,1-.41-0.332,0.422,0.422,0,0,1,.32-0.506c0.45-.1.91-0.208,1.36-0.321a0.424,0.424,0,1,1,.21.821c-0.46.117-.93,0.227-1.39,0.328A0.345,0.345,0,0,1,1224.5,482.375Zm-20.99-.444a0.337,0.337,0,0,1-.11-0.015c-0.46-.12-0.92-0.25-1.38-0.387a0.425,0.425,0,0,1,.25-0.812c0.44,0.134.9,0.261,1.34,0.38a0.426,0.426,0,0,1,.31.518A0.432,0.432,0,0,1,1203.51,481.931Zm25.35-.749a0.424,0.424,0,0,1-.13-0.827c0.44-.145.88-0.3,1.32-0.46a0.424,0.424,0,0,1,.29.8c-0.45.162-.9,0.32-1.35,0.468A0.394,0.394,0,0,1,1228.86,481.182Zm-29.66-.63a0.419,0.419,0,0,1-.15-0.028c-0.44-.168-0.89-0.346-1.33-0.527a0.425,0.425,0,1,1,.33-0.784c0.43,0.178.86,0.352,1.3,0.517a0.427,0.427,0,0,1,.25.547A0.436,0.436,0,0,1,1199.2,480.552Zm33.87-1a0.431,0.431,0,0,1-.39-0.251,0.426,0.426,0,0,1,.22-0.56c0.42-.189.84-0.388,1.26-0.59a0.424,0.424,0,1,1,.37.762c-0.42.206-.86,0.409-1.29,0.6A0.385,0.385,0,0,1,1233.07,479.55Zm-38.02-.814a0.476,0.476,0,0,1-.19-0.045c-0.42-.212-0.85-0.434-1.26-0.66a0.423,0.423,0,0,1,.4-0.745c0.41,0.221.83,0.439,1.24,0.646A0.425,0.425,0,0,1,1195.05,478.736Zm42.04-1.237a0.426,0.426,0,0,1-.37-0.213,0.435,0.435,0,0,1,.16-0.58c0.4-.231.8-0.471,1.2-0.716a0.422,0.422,0,1,1,.44.721c-0.4.25-.81,0.5-1.22,0.73A0.4,0.4,0,0,1,1237.09,477.5Zm-45.98-.991a0.417,0.417,0,0,1-.22-0.067c-0.4-.254-0.8-0.519-1.2-0.785a0.425,0.425,0,0,1,.48-0.7c0.39,0.261.78,0.52,1.17,0.77A0.425,0.425,0,0,1,1191.11,476.508Zm49.77-1.461a0.416,0.416,0,0,1-.34-0.175,0.423,0.423,0,0,1,.1-0.593c0.37-.271.75-0.552,1.12-0.835a0.419,0.419,0,0,1,.59.077,0.425,0.425,0,0,1-.08.6c-0.37.288-.76,0.574-1.14,0.851A0.416,0.416,0,0,1,1240.88,475.047Zm-53.46-1.156a0.42,0.42,0,0,1-.26-0.091c-0.37-.292-0.74-0.6-1.1-0.9a0.423,0.423,0,1,1,.54-0.65c0.36,0.3.72,0.6,1.09,0.884A0.424,0.424,0,0,1,1187.42,473.891Zm56.99-1.667a0.432,0.432,0,0,1-.32-0.143,0.424,0.424,0,0,1,.04-0.6c0.35-.309.7-0.626,1.03-0.945a0.425,0.425,0,0,1,.6.017,0.416,0.416,0,0,1-.02.6c-0.34.325-.69,0.65-1.05,0.964A0.42,0.42,0,0,1,1244.41,472.224Zm-60.39-1.307a0.4,0.4,0,0,1-.29-0.119c-0.35-.331-0.69-0.669-1.02-1.008a0.434,0.434,0,0,1,.01-0.6,0.425,0.425,0,0,1,.6.008c0.33,0.332.66,0.665,0.99,0.989a0.416,0.416,0,0,1,.01.6A0.405,0.405,0,0,1,1184.02,470.917Zm63.62-1.859a0.432,0.432,0,0,1-.29-0.112,0.424,0.424,0,0,1-.02-0.6c0.31-.343.63-0.695,0.93-1.045a0.427,0.427,0,0,1,.6-0.044,0.434,0.434,0,0,1,.04.6c-0.31.356-.63,0.715-0.95,1.065A0.422,0.422,0,0,1,1247.64,469.058Zm-66.71-1.443a0.407,0.407,0,0,1-.32-0.15c-0.31-.361-0.61-0.733-0.9-1.1a0.422,0.422,0,0,1,.66-0.526c0.29,0.363.59,0.728,0.89,1.083A0.424,0.424,0,0,1,1180.93,467.615Zm69.6-2.033a0.439,0.439,0,0,1-.26-0.085,0.431,0.431,0,0,1-.08-0.594c0.28-.372.56-0.753,0.82-1.134a0.425,0.425,0,0,1,.59-0.1,0.432,0.432,0,0,1,.11.591c-0.28.387-.56,0.777-0.84,1.156A0.433,0.433,0,0,1,1250.53,465.582Zm-72.33-1.562a0.412,0.412,0,0,1-.35-0.185c-0.27-.391-0.54-0.791-0.79-1.187a0.42,0.42,0,0,1,.13-0.587,0.43,0.43,0,0,1,.59.13c0.24,0.39.5,0.782,0.77,1.166a0.428,0.428,0,0,1-.11.589A0.448,0.448,0,0,1,1178.2,464.02Zm74.85-2.191a0.386,0.386,0,0,1-.21-0.061,0.418,0.418,0,0,1-.15-0.582c0.24-.4.48-0.807,0.7-1.212a0.43,0.43,0,0,1,.58-0.164,0.414,0.414,0,0,1,.16.578c-0.23.413-.47,0.828-0.71,1.235A0.426,0.426,0,0,1,1253.05,461.829Zm-77.21-1.661a0.411,0.411,0,0,1-.37-0.221c-0.23-.416-0.45-0.84-0.66-1.261a0.417,0.417,0,0,1,.18-0.57,0.424,0.424,0,0,1,.57.189c0.21,0.413.43,0.828,0.65,1.237a0.422,0.422,0,0,1-.17.575A0.4,0.4,0,0,1,1175.84,460.168Zm79.35-2.331a0.446,0.446,0,0,1-.19-0.04,0.424,0.424,0,0,1-.2-0.564c0.2-.422.39-0.853,0.58-1.279a0.425,0.425,0,0,1,.56-0.222,0.43,0.43,0,0,1,.22.557c-0.19.435-.39,0.874-0.59,1.3A0.426,0.426,0,0,1,1255.19,457.837Zm-81.3-1.738a0.434,0.434,0,0,1-.4-0.261c-0.18-.434-0.36-0.878-0.52-1.32a0.415,0.415,0,0,1,.24-0.547,0.425,0.425,0,0,1,.55.244c0.16,0.434.34,0.871,0.52,1.3a0.423,0.423,0,0,1-.23.555A0.417,0.417,0,0,1,1173.89,456.1Zm83.01-2.452a0.429,0.429,0,0,1-.14-0.024,0.423,0.423,0,0,1-.26-0.541c0.15-.441.3-0.889,0.44-1.332a0.424,0.424,0,0,1,.81.254c-0.14.452-.29,0.909-0.45,1.358A0.428,0.428,0,0,1,1256.9,453.647Zm-84.54-1.8a0.426,0.426,0,0,1-.41-0.3c-0.14-.455-0.27-0.917-0.39-1.373a0.424,0.424,0,0,1,.82-0.219c0.12,0.448.25,0.9,0.38,1.346a0.424,0.424,0,0,1-.28.529A0.416,0.416,0,0,1,1172.36,451.85Zm85.81-2.544a0.348,0.348,0,0,1-.09-0.012,0.431,0.431,0,0,1-.32-0.512c0.11-.45.21-0.909,0.3-1.366a0.423,0.423,0,0,1,.5-0.33,0.436,0.436,0,0,1,.34.5c-0.1.465-.2,0.934-0.31,1.393A0.429,0.429,0,0,1,1258.17,449.306Zm-86.9-1.843a0.429,0.429,0,0,1-.42-0.344c-0.09-.466-0.17-0.938-0.25-1.405a0.428,0.428,0,0,1,.36-0.485,0.419,0.419,0,0,1,.48.351c0.08,0.456.16,0.921,0.25,1.378a0.429,0.429,0,0,1-.34.5A0.363,0.363,0,0,1,1171.27,447.463Zm87.73-2.6-0.06,0a0.424,0.424,0,0,1-.36-0.477c0.06-.459.11-0.927,0.16-1.39a0.42,0.42,0,0,1,.46-0.379,0.415,0.415,0,0,1,.38.464c-0.04.472-.1,0.949-0.16,1.417A0.425,0.425,0,0,1,1259,444.861Zm-88.36-1.873a0.43,0.43,0,0,1-.43-0.387c-0.04-.471-0.07-0.95-0.1-1.422a0.423,0.423,0,0,1,.4-0.448,0.433,0.433,0,0,1,.45.4c0.02,0.463.06,0.933,0.1,1.395a0.426,0.426,0,0,1-.39.461Zm88.73-2.632h-0.02a0.424,0.424,0,0,1-.41-0.437c0.02-.462.02-0.933,0.02-1.4a0.425,0.425,0,1,1,.85,0c0,0.475-.01.954-0.02,1.425A0.428,0.428,0,0,1,1259.37,440.356Zm-88.91-1.886h-0.01a0.428,0.428,0,0,1-.42-0.428c0.01-.473.02-0.953,0.04-1.426a0.425,0.425,0,0,1,.85.035c-0.02.465-.03,0.935-0.04,1.4A0.421,0.421,0,0,1,1170.46,438.47Zm88.88-1.684a0.426,0.426,0,0,1-.43-0.4c-0.02-.463-0.05-0.933-0.09-1.4a0.426,0.426,0,0,1,.85-0.067c0.04,0.473.07,0.953,0.09,1.423a0.426,0.426,0,0,1-.4.445h-0.02Zm-88.61-2.827-0.05,0a0.421,0.421,0,0,1-.37-0.469c0.05-.472.11-0.948,0.18-1.415a0.423,0.423,0,0,1,.48-0.359,0.428,0.428,0,0,1,.36.48c-0.07.459-.12,0.925-0.18,1.388A0.415,0.415,0,0,1,1170.73,433.959Zm88.16-1.671a0.429,0.429,0,0,1-.42-0.361c-0.07-.462-0.14-0.927-0.23-1.381a0.425,0.425,0,0,1,.34-0.493,0.429,0.429,0,0,1,.5.341c0.08,0.463.16,0.936,0.23,1.406a0.416,0.416,0,0,1-.35.483C1258.93,432.286,1258.91,432.288,1258.89,432.288Zm-87.43-2.789a0.394,0.394,0,0,1-.09-0.01,0.42,0.42,0,0,1-.32-0.5c0.1-.463.21-0.93,0.32-1.39a0.426,0.426,0,0,1,.51-0.309,0.421,0.421,0,0,1,.31.515c-0.11.451-.22,0.909-0.31,1.362A0.433,0.433,0,0,1,1171.46,429.5Zm86.53-1.641a0.432,0.432,0,0,1-.41-0.319c-0.11-.451-0.24-0.9-0.37-1.349a0.433,0.433,0,0,1,.29-0.526,0.429,0.429,0,0,1,.53.289c0.13,0.453.26,0.916,0.38,1.376a0.431,0.431,0,0,1-.31.516A0.4,0.4,0,0,1,1257.99,427.858Zm-85.35-2.723a0.393,0.393,0,0,1-.13-0.021,0.427,0.427,0,0,1-.27-0.535c0.14-.45.3-0.905,0.46-1.353a0.432,0.432,0,0,1,.55-0.254,0.422,0.422,0,0,1,.25.543c-0.16.44-.31,0.887-0.46,1.328A0.411,0.411,0,0,1,1172.64,425.135Zm84.01-1.591a0.426,0.426,0,0,1-.4-0.277c-0.16-.437-0.33-0.876-0.5-1.306a0.418,0.418,0,0,1,.23-0.552,0.424,0.424,0,0,1,.55.233c0.18,0.438.35,0.886,0.52,1.33a0.433,0.433,0,0,1-.25.545A0.44,0.44,0,0,1,1256.65,423.544Zm-82.38-2.636a0.482,0.482,0,0,1-.18-0.036,0.421,0.421,0,0,1-.21-0.56c0.19-.432.39-0.869,0.6-1.3a0.423,0.423,0,1,1,.76.37c-0.2.42-.4,0.848-0.59,1.272A0.416,0.416,0,0,1,1174.27,420.908Zm80.6-1.516a0.414,0.414,0,0,1-.38-0.238c-0.21-.415-0.42-0.834-0.64-1.243a0.423,0.423,0,0,1,.18-0.574,0.419,0.419,0,0,1,.57.176c0.22,0.418.44,0.844,0.65,1.268a0.425,0.425,0,0,1-.19.567A0.439,0.439,0,0,1,1254.87,419.392Zm-78.56-2.521a0.426,0.426,0,0,1-.37-0.635c0.24-.412.49-0.825,0.73-1.228a0.432,0.432,0,0,1,.59-0.138,0.426,0.426,0,0,1,.14.583c-0.25.394-.49,0.8-0.72,1.205A0.424,0.424,0,0,1,1176.31,416.871Zm76.37-1.426a0.425,0.425,0,0,1-.36-0.2c-0.25-.393-0.5-0.787-0.76-1.174a0.42,0.42,0,0,1,.12-0.588,0.415,0.415,0,0,1,.58.116c0.27,0.394.53,0.8,0.78,1.2A0.428,0.428,0,0,1,1252.68,415.445Zm-73.92-2.38a0.425,0.425,0,0,1-.35-0.671c0.28-.384.56-0.769,0.85-1.147a0.427,0.427,0,0,1,.68.516c-0.29.369-.57,0.748-0.84,1.125A0.412,0.412,0,0,1,1178.76,413.065Zm71.34-1.327a0.422,0.422,0,0,1-.34-0.165c-0.28-.366-0.58-0.733-0.87-1.092a0.422,0.422,0,0,1,.05-0.6,0.427,0.427,0,0,1,.6.056c0.3,0.365.6,0.739,0.89,1.113A0.421,0.421,0,0,1,1250.1,411.738Zm-68.53-2.21a0.435,0.435,0,0,1-.28-0.107,0.423,0.423,0,0,1-.03-0.6c0.31-.356.63-0.71,0.96-1.054a0.425,0.425,0,0,1,.62.581c-0.32.337-.64,0.685-0.95,1.034A0.418,0.418,0,0,1,1181.57,409.528Zm65.58-1.218a0.4,0.4,0,0,1-.3-0.132c-0.33-.337-0.66-0.674-0.99-1a0.435,0.435,0,0,1,0-.6,0.424,0.424,0,0,1,.6,0c0.34,0.331.67,0.674,1,1.017a0.426,0.426,0,0,1-.02.6A0.406,0.406,0,0,1,1247.15,408.31Zm-62.42-2.016a0.435,0.435,0,0,1-.31-0.136,0.417,0.417,0,0,1,.03-0.6c0.34-.321.7-0.641,1.06-0.951a0.422,0.422,0,1,1,.55.641c-0.35.3-.7,0.617-1.04,0.933A0.411,0.411,0,0,1,1184.73,406.294Zm59.15-1.1a0.432,0.432,0,0,1-.28-0.1c-0.35-.3-0.72-0.6-1.08-0.9a0.423,0.423,0,0,1-.06-0.6,0.416,0.416,0,0,1,.59-0.064c0.37,0.3.74,0.6,1.1,0.912a0.426,0.426,0,0,1,.05.6A0.446,0.446,0,0,1,1243.88,405.2Zm-55.68-1.8a0.432,0.432,0,0,1-.34-0.169,0.422,0.422,0,0,1,.09-0.593c0.37-.284.76-0.566,1.15-0.84a0.423,0.423,0,0,1,.59.1,0.429,0.429,0,0,1-.1.591c-0.38.269-.76,0.546-1.13,0.824A0.446,0.446,0,0,1,1188.2,403.4Zm52.1-.971a0.411,0.411,0,0,1-.24-0.076c-0.39-.267-0.78-0.53-1.16-0.782a0.421,0.421,0,0,1-.13-0.587,0.428,0.428,0,0,1,.59-0.124c0.39,0.257.79,0.525,1.18,0.8A0.422,0.422,0,0,1,1240.3,402.426Zm-48.35-1.559a0.425,0.425,0,0,1-.23-0.787c0.41-.244.82-0.486,1.23-0.718a0.425,0.425,0,0,1,.42.739c-0.41.228-.81,0.465-1.21,0.7A0.4,0.4,0,0,1,1191.95,400.867Zm44.51-.833a0.39,0.39,0,0,1-.2-0.054c-0.41-.226-0.83-0.449-1.24-0.661a0.43,0.43,0,0,1-.19-0.57,0.435,0.435,0,0,1,.58-0.184c0.42,0.216.84,0.442,1.26,0.673a0.422,0.422,0,0,1,.16.577A0.426,0.426,0,0,1,1236.46,400.034Zm-40.54-1.3a0.416,0.416,0,0,1-.38-0.243,0.425,0.425,0,0,1,.2-0.565c0.43-.2.86-0.4,1.3-0.588a0.423,0.423,0,0,1,.33.778c-0.42.185-.85,0.379-1.27,0.577A0.421,0.421,0,0,1,1195.92,398.73Zm36.48-.687a0.413,0.413,0,0,1-.17-0.034c-0.43-.183-0.86-0.362-1.3-0.532a0.424,0.424,0,1,1,.31-0.789c0.44,0.172.89,0.354,1.32,0.541a0.424,0.424,0,0,1,.23.556A0.431,0.431,0,0,1,1232.4,398.043Zm-32.31-1.033a0.426,0.426,0,0,1-.4-0.283,0.432,0.432,0,0,1,.26-0.541c0.45-.157.9-0.31,1.35-0.454a0.424,0.424,0,1,1,.26.808c-0.44.141-.89,0.291-1.33,0.445A0.368,0.368,0,0,1,1200.09,397.01Zm28.06-.532a0.451,0.451,0,0,1-.13-0.02c-0.44-.137-0.89-0.27-1.34-0.394a0.423,0.423,0,1,1,.22-0.817c0.46,0.126.92,0.261,1.37,0.4a0.418,0.418,0,0,1,.28.53A0.414,0.414,0,0,1,1228.15,396.478Zm-23.72-.755a0.424,0.424,0,0,1-.1-0.837c0.46-.111.93-0.216,1.39-0.313a0.424,0.424,0,0,1,.17.83c-0.45.1-.91,0.2-1.36,0.309A0.573,0.573,0,0,1,1204.43,395.723Zm19.34-.365a0.3,0.3,0,0,1-.08-0.009q-0.69-.138-1.38-0.255a0.424,0.424,0,1,1,.14-0.836c0.47,0.079.94,0.166,1.4,0.26A0.424,0.424,0,0,1,1223.77,395.358Zm-14.9-.472a0.424,0.424,0,0,1-.06-0.844c0.47-.065.95-0.121,1.42-0.17a0.424,0.424,0,0,1,.08.844c-0.46.048-.92,0.1-1.39,0.166A0.217,0.217,0,0,1,1208.87,394.886Zm10.43-.2a0.345,0.345,0,0,1-.04,0c-0.46-.045-0.93-0.083-1.4-0.114a0.419,0.419,0,0,1-.39-0.451,0.414,0.414,0,0,1,.45-0.395c0.47,0.031.95,0.07,1.42,0.117A0.424,0.424,0,0,1,1219.3,394.69Zm-5.93-.186a0.414,0.414,0,0,1-.42-0.409,0.42,0.42,0,0,1,.41-0.439c0.47-.016.95-0.026,1.42-0.027h0a0.425,0.425,0,1,1,0,.849c-0.46,0-.93.01-1.39,0.025h-0.02Z" transform="translate(-1158.38 -381.969)"/>
  <path id="Icon_awesome-heart" data-name="Icon awesome-heart" class="cls-3" d="M1222.73,422.037a10.215,10.215,0,0,0-11.43,8.055l-0.48,2.059-2.05-.542a10.227,10.227,0,0,0-12.48,6.312,10.739,10.739,0,0,0,7.37,13.7l20.09,5.353a2.352,2.352,0,0,0,2.91-1.744l4.7-20.252a10.723,10.723,0,0,0-8.63-12.943h0Z" transform="translate(-1158.38 -381.969)"/>
</svg>
