<svg xmlns="http://www.w3.org/2000/svg" viewBox="0 0 117.85 119.98"><defs><style>.a{isolation:isolate;}.b{fill:#c2c2c2;}.c{fill:#d6d6d6;}.d{fill:#f6f6f6;}.e{fill:#230753;opacity:0.15;mix-blend-mode:multiply;}.f{fill:#e3e3e3;}</style></defs><title>moon</title><g class="a"><path class="b" d="M500.07,154.21l4.7.58a6.7,6.7,0,0,1,5.82,7.45l-.44,3.59a6.7,6.7,0,0,1-7.45,5.82l-4.7-.58a6.7,6.7,0,0,1-5.82-7.45l.44-3.59A6.7,6.7,0,0,1,500.07,154.21Z" transform="translate(-453.93 -51.71)"/><rect class="b" x="553.18" y="116.78" width="18.1" height="16.98" rx="5.54" ry="5.54" transform="translate(426.3 -406.72) rotate(110.95)"/><path class="c" d="M559.38,74.47l2.46,3.29a7,7,0,0,1-1.43,9.79L558,89.34a7,7,0,0,1-9.79-1.43l-2.46-3.29a7,7,0,0,1,1.43-9.79L549.58,73A7,7,0,0,1,559.38,74.47Z" transform="translate(-453.93 -51.71)"/><rect class="c" x="498.96" y="51.82" width="18.1" height="16.98" rx="5.66" ry="5.66" transform="matrix(-1, -0.03, 0.03, -1, 559.72, 86.37)"/><path class="c" d="M477.18,85.26l-2.53,3.21a8.52,8.52,0,0,1-11.93,1.4h0a8.52,8.52,0,0,1-1.4-11.93l2.54-3.21a8.51,8.51,0,0,1,11.92-1.4h0A8.51,8.51,0,0,1,477.18,85.26Z" transform="translate(-453.93 -51.71)"/><circle class="d" cx="57.64" cy="60.86" r="57.64"/><path class="e" d="M511.57,146.31a57.66,57.66,0,0,1-56.39-45.69,57.64,57.64,0,1,0,112.79,0A57.66,57.66,0,0,1,511.57,146.31Z" transform="translate(-453.93 -51.71)"/><ellipse class="f" cx="491.41" cy="82" rx="6.8" ry="4.6" transform="translate(-447.7 143.46) rotate(-22.6)"/><path class="f" d="M482.84,86.7c-1.47-3.53,1.57-8.16,6.8-10.34,3.87-1.61,7.84-1.42,10.24.21-2.2-2.31-6.74-2.81-11.14-1-5.23,2.18-8.27,6.81-6.8,10.34a5.08,5.08,0,0,0,1.89,2.25A4.84,4.84,0,0,1,482.84,86.7Z" transform="translate(-453.93 -51.71)"/><path class="e" d="M497.69,79.38A3.33,3.33,0,0,0,496.55,78c.67,2.29-1.32,5.15-4.62,6.52-2.62,1.09-5.32.94-6.91-.21,0,.11.07.22.11.33,1,2.34,4.58,3.07,8,1.63S498.67,81.73,497.69,79.38Z" transform="translate(-453.93 -51.71)"/><ellipse class="f" cx="513.01" cy="66.61" rx="4.55" ry="2.55" transform="translate(-458.14 5.08) rotate(-6.31)"/><path class="f" d="M529.45,86.78c-1.11-.64-1.32-2.37-.58-4a5.3,5.3,0,0,0-.3.45c-1,1.78-.88,3.8.34,4.5s3-.17,4.07-2c.09-.16.17-.33.24-.49C532.16,86.74,530.56,87.42,529.45,86.78Z" transform="translate(-453.93 -51.71)"/><path class="e" d="M506.78,67.81c-.25-2.24,2.79-4.41,6.8-4.86a11.31,11.31,0,0,1,4.58.38,10.42,10.42,0,0,0-5.59-.78c-4,.44-7,2.62-6.8,4.86.14,1.29,1.35,2.32,3.12,2.88A3.35,3.35,0,0,1,506.78,67.81Z" transform="translate(-453.93 -51.71)"/><path class="e" d="M517.54,66.11c-.13-1.21-1.76-2.05-3.82-2.08,1.13.34,1.91,1,2,1.81.15,1.4-1.75,2.76-4.25,3a7.92,7.92,0,0,1-1,0,7.09,7.09,0,0,0,2.8.22C515.79,68.86,517.7,67.51,517.54,66.11Z" transform="translate(-453.93 -51.71)"/><ellipse class="f" cx="466.16" cy="105.89" rx="6.68" ry="4.6" transform="translate(-324.59 393.4) rotate(-58)"/><path class="e" d="M470.95,98.62c2.3,1.44,2.78,4.94,1.37,8.37,2-3.45,1.72-7.32-.63-8.78a4.56,4.56,0,0,0-4.29-.07A4.63,4.63,0,0,1,470.95,98.62Z" transform="translate(-453.93 -51.71)"/><path class="e" d="M461.16,112.76c-3-1.84-3.37-6.58-1.13-10.95-.24.32-.47.65-.69,1-2.9,4.64-2.66,10,.53,12s8.13-.15,11-4.79c.22-.35.41-.7.6-1.06C468.55,112.91,464.11,114.61,461.16,112.76Z" transform="translate(-453.93 -51.71)"/><path class="e" d="M469.7,100.23c-2.15-1.35-5.49.1-7.44,3.23a9.58,9.58,0,0,0-.76,1.5c2-2.17,4.61-3,6.43-1.89s2.21,3.89,1.12,6.61a9.5,9.5,0,0,0,1-1.34C472,105.2,471.85,101.57,469.7,100.23Z" transform="translate(-453.93 -51.71)"/><ellipse class="f" cx="482.22" cy="130.07" rx="8.14" ry="9.96" transform="translate(-337.56 418.37) rotate(-58)"/><path class="e" d="M473.77,130.14c2.38-3.81,8.1-4.54,12.76-1.63a11.17,11.17,0,0,1,4.69,5.7c1.44-3.7-.47-8.41-4.69-11-4.66-2.92-10.38-2.19-12.76,1.63a7.47,7.47,0,0,0-.56,6.48A6.83,6.83,0,0,1,473.77,130.14Z" transform="translate(-453.93 -51.71)"/><path class="e" d="M496.19,131.13a9.93,9.93,0,0,1-1.29,5.47c-3.21,5.56-11.34,6.89-18.14,3a15.67,15.67,0,0,1-7.31-8.89c.2,4.41,3,9,7.8,11.73,6.81,3.93,14.93,2.61,18.14-3A10.45,10.45,0,0,0,496.19,131.13Z" transform="translate(-453.93 -51.71)"/><path class="e" d="M490.87,156c1.83-2.92,6.69-3.18,10.86-.58,2.87,1.8,4.67,4.48,4.91,6.94.23-2.7-1.64-5.89-4.91-7.94-4.17-2.6-9-2.35-10.86.58a4.83,4.83,0,0,0-.67,3.07A4.61,4.61,0,0,1,490.87,156Z" transform="translate(-453.93 -51.71)"/><path class="e" d="M503.74,160a3.31,3.31,0,0,1-.42,1.16c-1.34,2.15-4.92,2.34-8,.42a8.16,8.16,0,0,1-3.19-3.54c-.39,2.06,1,4.61,3.54,6.21,3.07,1.92,6.65,1.73,8-.42A4.07,4.07,0,0,0,503.74,160Z" transform="translate(-453.93 -51.71)"/><ellipse class="f" cx="534.68" cy="135.16" rx="13.32" ry="14.92" transform="translate(-317.2 465.26) rotate(-58)"/><path class="e" d="M525.92,135.06c3.9-6.24,12.72-7.76,19.71-3.39a16.52,16.52,0,0,1,3.35,2.76,15.56,15.56,0,0,0-7.24-10.57c-7-4.36-15.81-2.85-19.71,3.39-3.19,5.11-2.09,11.79,2.24,16.44A12.39,12.39,0,0,1,525.92,135.06Z" transform="translate(-453.93 -51.71)"/><path class="e" d="M553,132.7a19.81,19.81,0,0,1-3,10.67c-5.65,9-17.25,12-25.91,6.57A18,18,0,0,1,516,138.4a18.29,18.29,0,0,0,8.49,15.51c8.66,5.41,20.26,2.47,25.92-6.57A19.66,19.66,0,0,0,553,132.7Z" transform="translate(-453.93 -51.71)"/><ellipse class="f" cx="496.19" cy="105.15" rx="2.23" ry="3.24" transform="matrix(0.33, -0.94, 0.94, 0.33, -219.79, 487.72)"/><path class="e" d="M500,104.32a2.46,2.46,0,0,1,.21,2c-.55,1.58-2.85,2.21-5.14,1.41a5.62,5.62,0,0,1-2.5-1.68,5.21,5.21,0,0,0,2.95,2.34c2.29.8,4.6.16,5.14-1.41A2.74,2.74,0,0,0,500,104.32Z" transform="translate(-453.93 -51.71)"/><path class="e" d="M493.92,104.92c.4-1.16,2.1-1.63,3.79-1a4.41,4.41,0,0,1,1.22.65,4,4,0,0,0-2-1.48c-1.69-.59-3.39-.12-3.79,1a2.36,2.36,0,0,0,1.11,2.52A1.91,1.91,0,0,1,493.92,104.92Z" transform="translate(-453.93 -51.71)"/><path class="e" d="M524.88,102.18a2.87,2.87,0,0,0-3.1.66,3.27,3.27,0,0,1,1.63.14,2.67,2.67,0,0,1,1.93,3.21,2.05,2.05,0,0,1-.38.66,2.32,2.32,0,0,0,1.85-1.46A2.67,2.67,0,0,0,524.88,102.18Z" transform="translate(-453.93 -51.71)"/><path class="e" d="M524,107.73c-3.07-.84-5-3.6-4.28-6.16a4.09,4.09,0,0,1,.59-1.23,4.26,4.26,0,0,0-1.74,2.38c-.71,2.56,1.21,5.32,4.28,6.16a5.69,5.69,0,0,0,6.21-1.87A6.14,6.14,0,0,1,524,107.73Z" transform="translate(-453.93 -51.71)"/><path class="e" d="M554.84,106.58a2,2,0,0,1-.44,1.36,1.72,1.72,0,0,1-2.36.5,1.31,1.31,0,0,1-.31-.36,1.39,1.39,0,0,0,.5,1,1.72,1.72,0,0,0,2.36-.5A1.84,1.84,0,0,0,554.84,106.58Z" transform="translate(-453.93 -51.71)"/><path class="e" d="M529.92,82.91a1.82,1.82,0,0,1,2.53.33,1.51,1.51,0,0,1,.14,1.28,1.66,1.66,0,0,0,.2-1.91,1.82,1.82,0,0,0-2.53-.33,2.13,2.13,0,0,0-.9,1.16A2.24,2.24,0,0,1,529.92,82.91Z" transform="translate(-453.93 -51.71)"/><path class="e" d="M554.39,90.35a1.82,1.82,0,0,0-2.36-1,2.18,2.18,0,0,0-1.06.72,2.25,2.25,0,0,1,.63-.32,1.82,1.82,0,0,1,2.36,1,1.55,1.55,0,0,1-.33,1.43A1.67,1.67,0,0,0,554.39,90.35Z" transform="translate(-453.93 -51.71)"/><path class="e" d="M531.8,72c.24-1.16,2.14-1.75,4.24-1.32a6.58,6.58,0,0,1,1.55.52,5.31,5.31,0,0,0-2.93-1.53c-2.11-.43-4,.16-4.24,1.32-.17.85.6,1.76,1.85,2.36A1.61,1.61,0,0,1,531.8,72Z" transform="translate(-453.93 -51.71)"/><path class="e" d="M463.42,136.3c-1.57-3.29-4-5.42-5.44-4.72a1.39,1.39,0,0,0-.45.44c.95.33,2.88,2.2,4.27,5.12a10.31,10.31,0,0,1,.91,6.44,1.24,1.24,0,0,0,1-.07C465.1,142.81,465,139.59,463.42,136.3Z" transform="translate(-453.93 -51.71)"/><ellipse class="b" cx="460.31" cy="137.77" rx="1.62" ry="6.4" transform="translate(-468.36 160.13) rotate(-25.53)"/><path class="e" d="M461.77,137.07c-.15-.31-.3-.6-.46-.9,1.2,2.81,1.61,5.21.89,5.55s-2.33-1.48-3.76-4.18c.13.3.26.61.41.92,1.52,3.19,3.41,5.46,4.21,5.08S463.29,140.26,461.77,137.07Z" transform="translate(-453.93 -51.71)"/><path class="e" d="M553.5,93a2.79,2.79,0,0,1-3.62-1.51,2.41,2.41,0,0,1,.42-2.19,2.57,2.57,0,0,0-1,2.79,2.79,2.79,0,0,0,3.62,1.51,3.26,3.26,0,0,0,1.62-1.16A3.41,3.41,0,0,1,553.5,93Z" transform="translate(-453.93 -51.71)"/></g></svg>