<svg xmlns="http://www.w3.org/2000/svg" xmlns:xlink="http://www.w3.org/1999/xlink" viewBox="0 0 56.78 56.79"><defs><style>.a{isolation:isolate;}.b{fill:url(#a);}.c{fill:url(#b);}.d{fill:url(#c);}.e,.f,.g,.h,.i,.j,.l,.m{opacity:0.3;}.e{fill:url(#d);}.f{fill:url(#e);}.g{fill:url(#f);}.h{fill:url(#g);}.i{fill:url(#h);}.j{fill:url(#i);}.k{fill:#ffc76f;}.l{fill:url(#j);}.m{fill:url(#k);}.n{fill:#230753;opacity:0.15;mix-blend-mode:multiply;}</style><linearGradient id="a" x1="2089.73" y1="3104.01" x2="2034.12" y2="3124.91" gradientTransform="translate(3411.91 -1567.63) rotate(95.24)" gradientUnits="userSpaceOnUse"><stop offset="0" stop-color="#ff8849"/><stop offset="1" stop-color="#ff7e43"/></linearGradient><linearGradient id="b" x1="122.68" y1="234.91" x2="99.15" y2="201.57" gradientUnits="userSpaceOnUse"><stop offset="0" stop-color="#ff825b"/><stop offset="1" stop-color="#e56e4b"/></linearGradient><linearGradient id="c" x1="97.45" y1="197.5" x2="149.5" y2="197.5" xlink:href="#b"/><linearGradient id="d" x1="124.58" y1="226.8" x2="149.04" y2="226.8" gradientUnits="userSpaceOnUse"><stop offset="0" stop-color="#ffc76f"/><stop offset="1" stop-color="#f8b666"/></linearGradient><linearGradient id="e" x1="131.11" y1="219.56" x2="153.03" y2="219.56" xlink:href="#d"/><linearGradient id="f" x1="96.46" y1="216.21" x2="120.6" y2="216.21" xlink:href="#d"/><linearGradient id="g" x1="105.16" y1="205.65" x2="124.76" y2="214.6" xlink:href="#d"/><linearGradient id="h" x1="98.99" y1="203.61" x2="153.21" y2="203.61" xlink:href="#d"/><linearGradient id="i" x1="131.29" y1="188.65" x2="117.41" y2="191.4" xlink:href="#d"/><linearGradient id="j" x1="128.34" y1="237.02" x2="137.03" y2="237.02" xlink:href="#d"/><linearGradient id="k" x1="110.93" y1="229.73" x2="110.27" y2="246.2" xlink:href="#d"/></defs><title>planet</title><g class="a"><circle class="b" cx="124.84" cy="211.79" r="28.38" transform="translate(-209.19 -34.88) rotate(-44.57)"/><path class="c" d="M98.45,222.26c-.5-1.57,2.9-1.87,4.29-2a10.55,10.55,0,0,1,6.18,1.39l1.64,1.08a10,10,0,0,1,1.44,1.43,15,15,0,0,0,3.4,2.92,15.22,15.22,0,0,0,4.57,1.29c.71.12,1.48.18,2.21.25s1.69.26,2.52.26a41.31,41.31,0,0,1,4.77.16,21.79,21.79,0,0,1,4.38.58,7,7,0,0,1,3.25,2.41,10.69,10.69,0,0,1,1.22,2,5.19,5.19,0,0,1,.89,2.27,28.39,28.39,0,0,1-26.65,1.11S101.75,232.6,98.45,222.26Z" transform="translate(-96.46 -183.41)"/><path class="d" d="M122.25,183.53a28.38,28.38,0,0,0-24.8,20.83c6.93-4.23,15.85.59,16.53,1.29a24.36,24.36,0,0,0,13.68,5.87c7.93.9,10.35-7.73,17.12-11.79a17.65,17.65,0,0,1,4.72-2A28.37,28.37,0,0,0,122.25,183.53Z" transform="translate(-96.46 -183.41)"/><path class="e" d="M146.63,225.1c-1-.65-2.06-1.12-3.08-1.7a13.49,13.49,0,0,0-1.38-.9,3.07,3.07,0,0,0-1.53-.11c-1.52.14-3.05.17-4.56.38a3.66,3.66,0,0,0-1.59.56c-.39.31-.38.72-.92.88a9.87,9.87,0,0,1-1.75.17,13,13,0,0,1-2.48-.06,7.38,7.38,0,0,1-2.46-.63c-.33-.15-2.09-1-2.28-.48-.11.28.66.95.84,1.13a7.58,7.58,0,0,0,5.1,2.22c1.94.23,3.88.42,5.84.65a16.06,16.06,0,0,1,4.59,1c.7.31,1.45.44,2.15.8a11.84,11.84,0,0,1,2.36,2.3,28.6,28.6,0,0,0,3.56-4.64l-1.16-.8C147.48,225.53,147,225.36,146.63,225.1Z" transform="translate(-96.46 -183.41)"/><path class="f" d="M147.45,215.23c-1.27.33-2.45,1.12-3.71,1.29-2.29.32-4.5-.19-6.76-.39a12,12,0,0,1-2.58-.37c-.86-.25-2.46-1.19-3.29-.93.31.17.62.38.91.56a8.55,8.55,0,0,0,4.72,1.7,9.15,9.15,0,0,1,4.51,1.13c.76.43,1,1,1.67,1.61A8.37,8.37,0,0,0,145,221c.86.42,1.78.76,2.65,1.24.57.32,1.76,1.62,2.61,2.11A28.19,28.19,0,0,0,153,215,16.28,16.28,0,0,0,147.45,215.23Z" transform="translate(-96.46 -183.41)"/><path class="g" d="M97,217.23c1,0,2.19-.35,3.1-.31,1.08,0,2.16,0,3.24.17a13.49,13.49,0,0,1,5.08,2.22c2.52,1.6,4.65,4.05,7.61,4.9a8.52,8.52,0,0,0,2.7.28c.51,0,1.5.13,1.78-.46.42-.89-.54-2.51-1-3.14a10.73,10.73,0,0,0-1.43-1.76,12.52,12.52,0,0,0-1.74-1.21,6,6,0,0,0-3.37-1l-.25,0c.62.64,1.64.83,2,1.73.27.65.11,1-.69,1a7.67,7.67,0,0,1-2.81-.77,10.59,10.59,0,0,1-2.18-1.22c-.76-.56-1.6-1-2.38-1.51-1-.66-2-1.4-3.09-2a21.76,21.76,0,0,1-5.28-4.41l-1.08-1.14a5.78,5.78,0,0,1-.46-.65,28.42,28.42,0,0,0,.26,9.3Z" transform="translate(-96.46 -183.41)"/><path class="h" d="M105.85,209.93a16.3,16.3,0,0,0,3.61,1.29c2.63.63,6,0,8.34,1.58,1,.67,1.66,1.7,2.7,2.31a11.57,11.57,0,0,0,3.27,1.45c.13,0,.65.19.74,0s-.13-.47-.17-.57a10.36,10.36,0,0,0-.49-1,21.55,21.55,0,0,1-1.24-2.3c-.32-.79-.34-1.73-.66-2.51a5.44,5.44,0,0,0-3-2.21c-1.4-.34-3,.31-4.35.67a7,7,0,0,1-2.77.24,12.68,12.68,0,0,1-2.72-1.28,15.77,15.77,0,0,1-2.36-1.27c-.75-.53-1.29-1.29-2-1.87s-1.93-.41-1.72.75a9.2,9.2,0,0,0,.9,2.38A4.34,4.34,0,0,0,105.85,209.93Z" transform="translate(-96.46 -183.41)"/><path class="i" d="M102.74,199a12.5,12.5,0,0,1,4.81.13,19.89,19.89,0,0,1,4.94,2.08c1.48.89,2.75,2,4.27,2.91a18.77,18.77,0,0,0,5.48,2.48,27.83,27.83,0,0,0,6.35.83c3.91-.16,8-1.29,11.82-.59,4.36.78,9.55,2,12.8,5.22,0-.94,0-1.88-.12-2.83a28.33,28.33,0,0,0-1.75-7.54c-1.33-.54-4.27,2.28-6,2.67a6.18,6.18,0,0,1-3.39,0c-.23-.12-.65-.43-.65-.73,0-.62.48-.31.8-.72.76-1-2.15-3.11-3-3.47a24.48,24.48,0,0,0-6.13-2,13.16,13.16,0,0,0-4.81.61,16.56,16.56,0,0,1-5.8.52,6.54,6.54,0,0,1-3.34-1,10.25,10.25,0,0,0-2.18-1,11.63,11.63,0,0,0-5.77-.58c-1.88.36-3.74.67-5.59-.14a7.13,7.13,0,0,0-3.67-.47A28.43,28.43,0,0,0,99,200.08C99.64,200.22,101.72,199.06,102.74,199Z" transform="translate(-96.46 -183.41)"/><path class="j" d="M111.47,191.36c1.9,1.06,4,1.21,6.05,1.82a9.59,9.59,0,0,0,5.94-.06,5,5,0,0,1,1.54-.63,11.83,11.83,0,0,1,2.67.06,20.67,20.67,0,0,1,3.09.73c1.21.3,2.42.46,3.6.82a5.2,5.2,0,0,0,2.81.16c.57-.21.37-.84.11-1.3a10.12,10.12,0,0,0-1.69-2.15c-.72-.68-2.13-.88-2.49-1.92-.26-.76,0-1.22.79-1.16a13.56,13.56,0,0,1,2.62.46c1.06.3,2.12.58,3.16.9.66.21,1.87.28,2.86.52a28.33,28.33,0,0,0-12.41-5.71c-.51.29-1.08.86-1.41,1-.62.32-1.29.56-1.43,1.3a1.83,1.83,0,0,0,.64,1.85c.31.26,1.3.81,1.21,1.32-.18,1-3.91.14-4.58,0a19.67,19.67,0,0,1-5.66-1.67,7.37,7.37,0,0,1-2-1.3,12.74,12.74,0,0,1-1.27-1.54,28.22,28.22,0,0,0-7.81,4.12C108.33,189.87,110.58,190.87,111.47,191.36Z" transform="translate(-96.46 -183.41)"/><path class="k" d="M134.37,238.53h0l-.62.2Z" transform="translate(-96.46 -183.41)"/><path class="l" d="M128.71,234.54c0,.45.31,1.09-.12,1.43s-.91-.18-1.29-.37-1.22-.51-1.54-.11a3.33,3.33,0,0,0,0,1.57c.27,1,.39,3.06,1.4,3a28.38,28.38,0,0,0,6.5-1.31l.66-.25a27.71,27.71,0,0,0-3.2-3.27C130.72,234.85,128.87,233,128.71,234.54Z" transform="translate(-96.46 -183.41)"/><path class="m" d="M115.55,229.33c0,.48.27.86.25,1.33a2.44,2.44,0,0,1-1.52-.09,25.42,25.42,0,0,1-2.45-1.21,38.52,38.52,0,0,1-3.55-2.6,2.66,2.66,0,0,0-1.89-.53c-.62,0-1.12.32-1.74.36-.82,0-.8-.56-1.45-.79s-.52.48-.27.88c.62,1,1.56,1,2.58,1.4a2.87,2.87,0,0,1,.86.54,7.76,7.76,0,0,0,.73.49,11.13,11.13,0,0,0,1.21.69c.3.15.57.32.86.48s.71.44,1.06.67a11.45,11.45,0,0,0,2.74,1.18,23.36,23.36,0,0,0,3.51.67c.71.11,2.1.5,2.67-.12.1-.83-1.14-1.68-1.66-2.21A3.4,3.4,0,0,0,115.55,229.33Z" transform="translate(-96.46 -183.41)"/><path class="n" d="M150.18,199c.17.91-.65-2.57-.56-1.63a28.37,28.37,0,0,1-25.67,30.85c-11.93,1.09-21.85-1-27-11A28.38,28.38,0,1,0,150.18,199Z" transform="translate(-96.46 -183.41)"/></g></svg>