<svg id="repeat" xmlns="http://www.w3.org/2000/svg" width="62.25" height="54.719" viewBox="0 0 62.25 54.719">
  <defs>
    <style>
      .cls-1 {
        fill: #fd003a;
      }

      .cls-1, .cls-2, .cls-3, .cls-4 {
        fill-rule: evenodd;
      }

      .cls-2 {
        fill: #32d736;
      }

      .cls-3 {
        fill: #e50027;
      }

      .cls-4 {
        fill: #10bb67;
      }
    </style>
  </defs>
  <path id="Path_1186" data-name="Path 1186" class="cls-1" d="M3475.15,450.3l-14.59-10.944a1.839,1.839,0,0,0-2.92,1.459v5.472h-5.47a20.065,20.065,0,1,0,0,40.13h4.85a1.813,1.813,0,0,0,1.83-1.824v-7.3a1.812,1.812,0,0,0-1.83-1.823h-4.85a9.121,9.121,0,1,1,0-18.241h5.47V462.7a1.829,1.829,0,0,0,2.92,1.459l14.59-10.945A1.8,1.8,0,0,0,3475.15,450.3Z" transform="translate(-3432 -439)"/>
  <path id="Path_1187" data-name="Path 1187" class="cls-2" d="M3474.06,446.286h-4.27l5.36,4.013a1.8,1.8,0,0,1,0,2.918l-5.36,4.014h4.27a9.121,9.121,0,1,1,0,18.241h-5.47V470a1.824,1.824,0,0,0-2.92-1.46c-10.91,8.209-7.84,5.91-14.59,10.945a1.8,1.8,0,0,0,0,2.918c6.75,5.035,3.68,2.737,14.59,10.945a1.829,1.829,0,0,0,2.92-1.459v-5.472h5.47A20.065,20.065,0,1,0,3474.06,446.286Z" transform="translate(-3432 -439)"/>
  <path id="Path_1188" data-name="Path 1188" class="cls-3" d="M3458.85,477.3v7.3a1.813,1.813,0,0,1-1.83,1.824h-4.85a20.211,20.211,0,0,1-20.19-20.065h10.95a9.23,9.23,0,0,0,9.24,9.121h4.85A1.812,1.812,0,0,1,3458.85,477.3Z" transform="translate(-3432 -439)"/>
  <path id="Path_1189" data-name="Path 1189" class="cls-4" d="M3494.25,466.351a20.211,20.211,0,0,1-20.19,20.065h-5.47v5.472a1.829,1.829,0,0,1-2.92,1.459c-10.91-8.208-7.84-5.91-14.59-10.945a1.8,1.8,0,0,1,0-2.918c6.75-5.035,3.68-2.736,14.59-10.945a1.824,1.824,0,0,1,2.92,1.46v5.473h5.47a9.23,9.23,0,0,0,9.24-9.121h10.95Z" transform="translate(-3432 -439)"/>
</svg>
