<svg xmlns="http://www.w3.org/2000/svg" xmlns:xlink="http://www.w3.org/1999/xlink" viewBox="0 0 63.76 76.6"><defs><style>.a{isolation:isolate;}.b{fill:#fff;opacity:0.06;}.c{fill:url(#a);}.d{opacity:0.15;mix-blend-mode:multiply;}.e{fill:#230753;}.f{fill:#ddd;}.g{fill:#ff1200;}.h{fill:#f4f2ed;}.i{fill:#040028;}.j{fill:none;stroke:#f4f2ed;stroke-linecap:round;stroke-linejoin:round;stroke-width:0.3px;}</style><linearGradient id="a" x1="1188.4" y1="584.22" x2="1215.72" y2="567.46" gradientTransform="translate(1531.15 376.42) rotate(165.64)" gradientUnits="userSpaceOnUse"><stop offset="0" stop-color="#f1c13b"/><stop offset="1" stop-color="#ff1200"/></linearGradient></defs><title>rocket</title><g class="a"><path class="b" d="M207,128.54l23.25-31.85c2.27-2.62,7-2.3,10.43.71l.88.76c3.47,3,4.45,7.61,2.18,10.23l-17.4,17.82a.46.46,0,0,1-.78-.39l.28-1.94-28,24.82a.46.46,0,0,1-.69-.59l12.51-20-2,1.06A.46.46,0,0,1,207,128.54Z" transform="translate(-197.06 -72.23)"/><path class="b" d="M210.49,126.48,230.9,98.95c2-2.28,5.86-2.19,8.61.2l.7.6c2.76,2.39,3.4,6.22,1.42,8.5l-15.05,15.57a.39.39,0,0,1-.66-.34l.29-1.55-24,21.78a.39.39,0,0,1-.59-.5l11-17.08-1.63.91A.39.39,0,0,1,210.49,126.48Z" transform="translate(-197.06 -72.23)"/><path class="c" d="M218.53,119.35l13-17.74c1.28-1.47,3.89-1.32,5.8.34l.48.42c1.92,1.66,2.44,4.22,1.16,5.7L229.29,118a.3.3,0,0,1-.5-.25l.15-1-15.5,13.79a.3.3,0,0,1-.45-.38l6.9-10.95-1,.52A.3.3,0,0,1,218.53,119.35Z" transform="translate(-197.06 -72.23)"/><g class="d"><path class="e" d="M232.08,102.54c1.28-1.47,3.89-1.32,5.8.34l.48.42a5.77,5.77,0,0,1,.86.95,5.61,5.61,0,0,0-1.41-1.88l-.48-.42c-1.92-1.66-4.53-1.82-5.8-.34l-12.85,17.55a.35.35,0,0,0,.44.52l.67-.35Z" transform="translate(-197.06 -72.23)"/><path class="e" d="M214.47,129.67l6-9.47-1.71.9L213,130.16a.31.31,0,0,0,.46.39Z" transform="translate(-197.06 -72.23)"/></g><path class="f" d="M239.41,108.05a.89.89,0,0,0,1.24-.17l1-1.36a6,6,0,0,0-1.19-8.44h0A6,6,0,0,0,232,99.26l-1,1.36a.89.89,0,0,0,.17,1.24Z" transform="translate(-197.06 -72.23)"/><path class="g" d="M240.38,107.82l-9.22-6.95A.77.77,0,0,1,231,99.8h0a.77.77,0,0,1,1.08-.15l9.22,6.95a.77.77,0,0,1,.15,1.08h0A.77.77,0,0,1,240.38,107.82Z" transform="translate(-197.06 -72.23)"/><rect class="h" x="234.67" y="82.8" width="24.39" height="14.18" transform="translate(-170.57 160.7) rotate(-53)"/><path class="g" d="M260.78,75.28a2.65,2.65,0,0,0-3.71-2.8l-8.53,3.4,5.66,4.27,5.66,4.27Z" transform="translate(-197.06 -72.23)"/><path class="g" d="M246.49,104.85a.86.86,0,0,1-1.21.17l-12.52-9.43a.86.86,0,0,1-.17-1.21h0a.86.86,0,0,1,1.21-.17l12.52,9.43a.86.86,0,0,1,.17,1.21Z" transform="translate(-197.06 -72.23)"/><circle class="g" cx="248.88" cy="87.2" r="4.99" transform="matrix(0.6, -0.8, 0.8, 0.6, -167.61, 161.25)"/><rect class="g" x="240.91" y="89.68" width="1.54" height="14.18" transform="matrix(0.6, -0.8, 0.8, 0.6, -178.13, 159.3)"/><path class="f" d="M242.1,84.43l-8.77,1a4.45,4.45,0,0,0-3,1.8l-5.27,7,7.7-2.13a3.75,3.75,0,0,1,3,.79Z" transform="translate(-197.06 -72.23)"/><path class="g" d="M225.46,96.17h0a1.55,1.55,0,0,1-.31-2.17l5.3-7a4.85,4.85,0,0,1,3.15-1.63Z" transform="translate(-197.06 -72.23)"/><path class="g" d="M238,84.88l-5.44,7.22.17,0a3,3,0,0,1,.69-.06l5.43-7.21Z" transform="translate(-197.06 -72.23)"/><path class="f" d="M253.42,93l1.5,8.7a4.45,4.45,0,0,1-.89,3.41l-5.27,7-.08-8a3.76,3.76,0,0,0-1.6-2.7Z" transform="translate(-197.06 -72.23)"/><path class="g" d="M246.72,112.19h0a1.55,1.55,0,0,0,2.17-.31l5.3-7a4.85,4.85,0,0,0,.7-3.48Z" transform="translate(-197.06 -72.23)"/><path class="g" d="M254,96.17l-5.44,7.21a3,3,0,0,1,.14.7v.14L254.11,97Z" transform="translate(-197.06 -72.23)"/><path class="i" d="M252.31,89.15a3.94,3.94,0,1,1-.88-4.94A3.94,3.94,0,0,1,252.31,89.15Z" transform="translate(-197.06 -72.23)"/><path class="j" d="M249.54,84.19l.28.07" transform="translate(-197.06 -72.23)"/><path class="j" d="M247,84.74a3.09,3.09,0,0,1,2.08-.61" transform="translate(-197.06 -72.23)"/></g></svg>